<?xml version="1.0" encoding="UTF-8" standalone="no"?>
<!-- Created with Inkscape (http://www.inkscape.org/) -->

<svg
   width="210mm"
   height="297mm"
   viewBox="0 0 210 297"
   version="1.1"
   id="svg1"
   inkscape:version="1.4.2 (f4327f4, 2025-05-13)"
   sodipodi:docname="documento-3.svg"
   xmlns:inkscape="http://www.inkscape.org/namespaces/inkscape"
   xmlns:sodipodi="http://sodipodi.sourceforge.net/DTD/sodipodi-0.dtd"
   xmlns="http://www.w3.org/2000/svg"
   xmlns:svg="http://www.w3.org/2000/svg">
  <sodipodi:namedview
     id="namedview1"
     pagecolor="#ffffff"
     bordercolor="#cccccc"
     borderopacity="1"
     inkscape:showpageshadow="0"
     inkscape:pageopacity="1"
     inkscape:pagecheckerboard="0"
     inkscape:deskcolor="#d1d1d1"
     inkscape:document-units="mm"
     inkscape:zoom="0.70710678"
     inkscape:cx="263.04372"
     inkscape:cy="474.46865"
     inkscape:window-width="1920"
     inkscape:window-height="1017"
     inkscape:window-x="-8"
     inkscape:window-y="-8"
     inkscape:window-maximized="1"
     inkscape:current-layer="layer1" />
  <defs
     id="defs1" />
  <g
     inkscape:label="Camada 1"
     inkscape:groupmode="layer"
     id="layer1">
    <ellipse
       style="fill:#000000;stroke-width:0.264583"
       id="path1"
       cx="88.989243"
       cy="172.25055"
       rx="21.318405"
       ry="20.407362" />
    <path
       style="fill:#000000;stroke-width:0.264583"
       id="path8"
       d="m 85.847951,193.00203 c 0.02609,0.44168 0.03629,0.88459 0.07824,1.32506 0.357725,3.75621 0.93041,7.48851 1.301309,11.2444 0.439637,4.45192 0.488114,5.59133 0.801639,10.05119 0.485265,7.46979 0.639176,14.95535 0.637747,22.43922 -0.01476,2.33731 0.0027,4.67601 -0.17022,7.00809 0,0 3.417964,1.76479 3.417964,1.76479 v 0 c 0.08194,-2.38941 -0.02312,-4.77685 -0.08215,-7.16604 -0.23155,-7.55747 -0.550989,-15.11264 -1.032742,-22.65866 -0.316971,-4.55196 -0.370261,-5.48372 -0.732745,-10.02597 -0.290658,-3.64222 -0.723025,-7.29276 -0.777648,-10.94991 -0.0061,-0.40931 0.02601,-0.81829 0.03902,-1.22744 z" />
    <circle
       id="path14"
       style="fill:#ffffff;stroke:#000000;stroke-width:0.264583"
       cx="81.534393"
       cy="167.53214"
       r="0.035242245" />
    <path
       style="fill:#ffffff;stroke-width:0.264583"
       id="path15"
       d="m 78.416871,159.81818 c 0.923999,1.31984 1.934387,2.57457 2.899325,3.86366 0,0 3.54515,1.52795 3.54515,1.52795 v 0 c -0.951588,-1.26901 -1.9913,-2.47601 -2.823075,-3.83102 z" />
    <path
       style="fill:#ffffff;stroke-width:0.264583"
       id="path16"
       d="m 93.095796,160.83734 c 0.906542,0.99511 1.741953,2.05347 2.590144,3.0984 0,0 3.568676,1.51956 3.568676,1.51956 v 0 c -0.848744,-1.02449 -1.694394,-2.05302 -2.507718,-3.10562 z" />
    <path
       style="fill:#000000;stroke-width:0.264583"
       id="path26"
       d="m 85.718498,207.25952 c -2.571466,0.16015 -5.13925,-0.0271 -7.695739,-0.29559 -3.621691,-0.4354 -7.166742,-1.31553 -10.717324,-2.12476 -3.061205,-0.74067 -6.105988,-1.54598 -9.167018,-2.28797 -2.404465,-0.63789 -4.834305,-1.17122 -7.189751,-1.97718 0.601673,0.49348 -2.809203,-1.3979 -2.13429,-0.99666 0.695679,0.41359 1.364308,0.89736 2.124075,1.17625 0.418486,0.15362 -0.732166,-0.51026 -1.077558,-0.79209 -1.111885,-0.90729 -1.408422,-1.29934 -2.433947,-2.38565 -2.2621,-2.66346 -4.314251,-5.5177 -6.027802,-8.56653 -0.477954,-0.85039 -0.967658,-1.69837 -1.357922,-2.59241 -0.461387,-1.05697 -0.794398,-2.16545 -1.191597,-3.24818 -0.276315,-1.14551 -0.630763,-2.27496 -0.828945,-3.43653 -0.733321,-4.29812 -0.441217,-8.81595 0.155014,-13.11223 0.114854,-0.82761 0.265196,-1.6499 0.397794,-2.47485 0.139126,-0.69999 0.278253,-1.39999 0.417379,-2.09998 0,0 -3.048952,-1.62187 -3.048952,-1.62187 v 0 c -0.113493,0.71758 -0.226987,1.43516 -0.340481,2.15274 -0.111097,0.84135 -0.24054,1.68048 -0.333291,2.52406 -0.349867,3.18208 -0.535823,6.42588 -0.376313,9.62633 0.06099,1.22366 0.140113,2.45038 0.33091,3.66061 0.183929,1.16666 0.52714,2.30258 0.790711,3.45387 0.352144,1.07905 0.625619,2.18702 1.056431,3.23714 0.370705,0.9036 0.86927,1.74996 1.340498,2.60545 1.656541,3.00736 3.619809,5.84205 5.757476,8.52508 0.954625,1.08193 1.240248,1.48476 2.289429,2.39722 1.572953,1.36797 3.415951,2.24579 5.245028,3.28139 0.347459,0.19673 0.712357,0.36172 1.077299,0.52373 0.362926,0.16111 0.736656,0.29671 1.104982,0.44507 0.957321,0.31546 1.142574,0.39285 2.111444,0.64794 1.658284,0.43659 3.343002,0.77225 4.996796,1.22741 3.047466,0.74897 6.077538,1.56951 9.139354,2.25835 3.555082,0.78246 7.090786,1.69645 10.720345,2.07597 2.677351,0.28331 5.358707,0.47164 8.05162,0.50838 z" />
    <path
       style="fill:#000000;stroke-width:0.264583"
       id="path27"
       d="m 91.532876,209.18817 c 4.862936,1.41836 9.933324,1.841 14.955654,2.29158 6.43842,0.52723 12.89669,0.78811 19.34984,0.36423 4.36244,-0.28655 6.08742,-0.58057 10.3614,-1.14099 3.74385,-0.62342 7.52709,-1.24899 11.11353,-2.54006 1.33148,-0.47931 3.03153,-1.22342 4.17373,-2.12803 0.50175,-0.39737 0.89455,-0.91564 1.34182,-1.37347 0.33537,-0.55022 0.72178,-1.07243 1.00611,-1.65068 1.02286,-2.08017 1.6564,-4.86059 1.7303,-7.15497 0.11285,-3.5039 -0.33729,-5.50077 -0.82395,-9.09847 -0.29181,-1.8265 -0.56533,-3.656 -0.87542,-5.47948 -0.63302,-3.72234 -1.34579,-7.43077 -1.98722,-11.15167 -0.66116,-3.83535 -1.27265,-7.67914 -1.89835,-11.52035 0,0 -2.89222,-1.4051 -2.89222,-1.4051 v 0 c 2.073,9.38535 3.93245,18.82838 5.22922,28.35499 0.1422,1.66664 0.36011,3.32855 0.42662,4.99992 0.1437,3.61138 -0.30038,7.4195 -1.95333,10.68718 -0.27941,0.55236 -0.64765,1.05511 -0.97147,1.58266 -0.41864,0.4439 -0.78882,0.9391 -1.2559,1.3317 -1.1048,0.92861 -2.60413,1.66397 -3.91642,2.19487 -3.42303,1.38482 -7.06278,2.12306 -10.68156,2.77351 -4.45085,0.63594 -5.68835,0.90376 -10.27208,1.17127 -6.52453,0.38078 -13.05897,-0.0151 -19.56083,-0.56469 -1.41449,-0.1528 -2.83198,-0.27987 -4.243451,-0.45838 -3.870092,-0.48945 -7.744169,-1.17306 -11.429947,-2.48234 z" />
    <path
       style="fill:#000000;stroke-width:0.264583"
       id="path34"
       d="m 22.087235,20.754293 c 2.049577,0.427804 3.960318,0.662607 6.056854,0.505399 1.894842,-0.288934 2.567,-0.832954 3.023441,-2.66278 0.02032,-2.017629 -0.823156,-3.89024 -1.756749,-5.634763 C 28.539754,11.48604 27.101816,10.626502 25.671303,9.7763146 23.398268,8.3858898 21.28212,6.9498876 18.673186,6.4558049 c -0.43902,-0.00585 -0.9885,-0.2412208 -1.425406,-0.071624 -0.738749,0.2867655 -1.310616,1.1029395 -1.807661,1.6677746 -1.582907,2.0018725 -2.595116,4.3462335 -3.510039,6.7062355 -1.046485,2.968534 -1.282406,6.099962 -1.484899,9.214406 -0.132408,2.075575 -0.269793,4.14926 0.312777,6.174712 0.280551,0.975405 0.504304,1.337125 0.939468,2.219798 1.298945,2.182249 3.647178,3.767281 6.160751,4.273889 0.315339,0.06356 0.636616,0.0929 0.954924,0.139356 2.590245,0.204788 5.171751,-0.06631 7.715757,-0.541197 1.918993,-0.465968 3.872174,-0.774914 5.795332,-1.217671 0,0 -3.19978,-2.213732 -3.19978,-2.213732 v 0 c -1.900431,0.456401 -3.824606,0.814967 -5.733375,1.234829 -2.535062,0.426956 -5.105876,0.731213 -7.674658,0.403736 -2.048598,-0.428284 -3.070659,-1.221764 1.139613,1.221309 0.19485,0.113064 -0.387371,-0.234294 -0.55771,-0.381723 -0.488668,-0.422936 -0.705141,-0.802251 -1.083832,-1.333545 -0.451316,-0.830844 -0.71162,-1.225221 -1.011717,-2.149191 -0.645222,-1.986574 -0.526722,-4.039974 -0.400506,-6.09325 0.189264,-3.073003 0.457922,-6.155961 1.481109,-9.084732 0.890152,-2.32322 1.869447,-4.628553 3.475209,-6.563028 1.161494,-1.253994 1.369043,-1.5814357 3.046738,-1.231601 0.581816,0.1310455 1.148225,0.2776286 1.700905,0.5076248 1.225533,0.510001 3.698507,2.1155142 -1.470783,-0.9614715 1.414275,0.8281382 2.88255,1.6052734 3.82892,2.9989517 0.947597,1.652595 1.782725,3.424056 1.856181,5.361464 -0.386995,1.688744 -0.996074,2.028144 -2.716437,2.272579 -2.047417,0.115328 -4.070353,-0.145739 -6.053538,-0.670524 z" />
    <path
       style="fill:#000000;stroke-width:0.264583"
       id="path35"
       d="m 39.801702,13.658282 c 0.978574,4.871986 1.136493,9.867495 1.346237,14.818793 0.122319,2.212771 0.239376,4.417835 0.102901,6.630191 0,0 3.398102,1.743241 3.398102,1.743241 v 0 C 44.6382,34.593609 44.491065,32.344275 44.351363,30.091779 44.1322,25.192455 43.992074,20.27262 43.355183,15.405808 Z" />
    <path
       style="fill:#000000;stroke-width:0.264583"
       id="path36"
       d="m 50.62553,15.970219 c 0.141209,2.748152 -0.08938,5.499652 -0.01262,8.248236 0.02376,0.850583 0.09586,1.699128 0.143788,2.548692 0.262638,3.303907 0.11308,1.66167 0.447585,4.926809 0,0 3.305349,1.641067 3.305349,1.641067 v 0 c -0.34667,-3.258161 -0.191047,-1.619591 -0.465809,-4.915813 -0.04548,-0.839655 -0.118206,-1.678281 -0.136441,-2.518971 -0.05888,-2.714612 0.232278,-5.423534 0.23675,-8.137207 z" />
    <path
       style="fill:#000000;stroke-width:0.264583"
       id="path37"
       d="m 46.153157,28.47553 c 2.377514,-0.567598 4.805285,-0.881804 7.224498,-1.209006 0,0 -3.056004,-2.157045 -3.056004,-2.157045 v 0 c -2.455177,0.344159 -4.90433,0.732052 -7.363312,1.044881 z" />
    <path
       style="fill:#000000;stroke-width:0.264583"
       id="path38"
       d="m 61.848327,18.543417 c -0.04925,2.173995 -0.25332,4.341352 -0.270092,6.515433 0.119309,1.739959 0.11588,3.813279 1.430338,5.156124 0.274145,0.280067 0.61569,0.485072 0.923538,0.727607 2.509597,1.766425 4.585753,2.644603 7.376734,3.259802 0.854004,0.188243 1.583418,0.370022 2.464613,0.264062 0.379862,-0.04568 0.739949,-0.194953 1.109924,-0.292428 1.364607,-0.658871 2.751857,-1.655069 3.513677,-3.012975 0.103108,-0.183784 0.15856,-0.390498 0.23784,-0.585747 0,0 -3.431681,-1.907056 -3.431681,-1.907056 v 0 c -0.537117,1.570725 -2.023409,2.671572 -3.494217,3.309736 -0.348213,0.07156 -0.690052,0.189328 -1.044633,0.214694 -1.235974,0.08842 -2.606696,-0.315823 -3.772413,-0.666134 -0.479409,-0.144068 -1.720826,-0.887 -1.420876,-0.486225 0.486108,0.649515 1.36322,0.879946 2.044832,1.319922 -0.773954,-0.508884 -1.093189,-0.596837 -1.599115,-1.371619 -0.795401,-1.218096 -0.784953,-2.798799 -0.92152,-4.186208 0.0082,-2.157463 0.195315,-4.314065 0.37669,-6.463605 z" />
    <path
       style="fill:#000000;stroke-width:0.264583"
       id="path39"
       d="m 66.775377,19.49361 c 2.99003,-0.122336 5.963118,-0.757411 8.870352,-1.447851 1.449861,-0.338438 0.783071,-0.202388 1.996678,-0.425829 0,0 -3.199384,-2.224063 -3.199384,-2.224063 v 0 c -1.166993,0.28032 -0.524373,0.120132 -1.925939,0.48819 -2.916124,0.716432 -5.916801,1.339667 -8.931942,1.291711 z" />
    <path
       style="fill:#000000;stroke-width:0.264583"
       id="path40"
       d="m 66.975389,25.99764 c 1.957829,-0.659056 3.994038,-1.059511 6.011521,-1.489724 0,0 -3.110365,-2.159968 -3.110365,-2.159968 v 0 c -2.050238,0.451073 -4.110284,0.873076 -6.133351,1.436111 z" />
    <path
       style="fill:#000000;stroke-width:0.264583"
       id="path41"
       d="m 90.704071,14.483153 c -1.467448,0.572769 -2.770383,1.433858 -4.039814,2.350044 -1.542077,1.0297 -2.121673,2.158079 -2.771995,3.868251 -0.811194,2.592799 -1.211556,5.293476 -0.872863,8.005499 0.06768,0.541899 0.198678,1.073997 0.298016,1.610993 0.541724,1.814036 1.32366,4.487389 2.830653,5.775886 0.305514,0.261217 0.676034,0.435057 1.01405,0.652584 1.531696,0.764556 3.01276,1.640308 4.59509,2.293665 0.465899,0.192373 0.994785,0.166724 1.495872,0.221337 2.097463,0.228597 4.152818,0.09135 6.236316,-0.177297 2.303834,-0.293677 3.890694,-1.014045 5.767184,-2.303831 1.01284,-0.992671 1.3934,-2.325396 1.59457,-3.686672 0.0895,-0.832337 0.15515,-1.818725 -0.41589,-2.519463 -0.1436,-0.17622 -0.33715,-0.305004 -0.50573,-0.457507 -2.9517,-1.99957 -5.11877,-2.994165 -8.467776,-3.3948 -0.321585,-0.0093 -0.643173,-0.01857 -0.964758,-0.02787 0,0 3.128457,2.293593 3.128457,2.293593 v 0 c 0.314505,0.0181 0.629007,0.03621 0.943517,0.05431 1.23089,0.175808 2.42326,0.406599 3.5843,0.867849 0.27126,0.107765 1.04385,0.51607 0.80054,0.354838 -0.8627,-0.571672 -1.77739,-1.060701 -2.66609,-1.59105 0.18304,0.104534 0.38899,0.176516 0.54911,0.313605 0.64699,0.553945 0.60136,1.523611 0.53456,2.274951 -0.14927,1.260893 -0.44645,2.514282 -1.40609,3.418292 -1.81723,1.259367 -3.358062,1.915038 -5.590288,2.199815 -1.533903,0.186597 -3.036313,0.321262 -4.585006,0.238318 -0.528508,-0.02831 -1.056773,-0.0741 -1.580939,-0.147384 -0.495623,-0.06929 -1.689184,-0.732184 -1.475015,-0.279881 0.353698,0.746961 1.347978,0.956646 2.021967,1.434968 -0.34771,-0.178864 -0.727027,-0.306433 -1.04313,-0.536594 -1.511414,-1.100484 -2.458069,-3.918431 -2.981703,-5.614326 -0.107707,-0.524124 -0.24895,-1.042458 -0.323123,-1.572366 -0.371483,-2.653982 0.005,-5.299672 0.843079,-7.828323 0.679641,-1.669461 1.223449,-2.62053 2.717228,-3.64405 1.25493,-0.913851 2.552653,-1.7543 4.024353,-2.283571 z" />
    <path
       style="fill:#000000;stroke-width:0.264583"
       id="path42"
       d="m 115.43831,34.50477 c -0.56412,-2.022589 -1.42063,-3.95423 -1.96151,-5.983626 -0.13816,-0.518383 -0.23769,-1.046298 -0.35654,-1.569445 -0.36337,-2.013397 -0.38619,-4.129296 0.51879,-6.01219 0.14163,-0.294671 0.32731,-0.566062 0.49096,-0.849093 0.79965,-1.505564 2.27763,-2.090596 3.50729,-3.102698 1.25557,-0.806044 2.08593,-0.848183 3.4246,-0.290217 -5.50084,-3.118319 -2.75449,-1.750158 -1.77169,-0.733384 0.55552,0.574716 0.90909,1.213361 1.2533,1.925636 0.88069,2.178146 1.34357,4.483154 1.67128,6.799817 0.2083,2.004475 0.10972,4.001378 -0.27753,5.973741 -0.35046,1.442217 -1.12858,2.630186 -2.20541,3.627869 -1.27381,1.041206 -2.93595,1.103698 -4.50739,1.205735 -0.49337,0.01802 -1.15933,0.08793 -1.65195,-0.06178 -0.27923,-0.08486 -1.0421,-0.525113 -0.7879,-0.381762 0.82104,0.463008 1.60327,1.020035 2.48942,1.3413 0.32716,0.118608 -0.5311,-0.453451 -0.76101,-0.714682 -0.21759,-0.24724 -0.3834,-0.535638 -0.57511,-0.803457 0,0 -3.54799,-1.550927 -3.54799,-1.550927 v 0 c 1.51935,2.407968 2.21064,2.350376 5.44795,4.132763 0.26825,0.147693 0.56942,0.235249 0.86938,0.296875 0.46124,0.09477 1.22164,0.0241 1.67397,7.94e-4 1.65816,-0.129535 3.37193,-0.259948 4.67444,-1.415002 1.11831,-1.074814 1.94652,-2.316673 2.32021,-3.843057 0.3768,-2.019006 0.48453,-4.055846 0.29849,-6.106849 -0.33302,-2.334263 -0.79067,-4.656072 -1.59107,-6.880694 -1.25992,-3.081979 -3.02245,-3.511691 -6.11712,-5.230436 -1.38993,-0.430463 -2.43712,-0.209909 -3.64315,0.62563 -1.30179,1.00686 -2.71547,1.723818 -3.54724,3.249726 -0.17056,0.300385 -0.36304,0.589341 -0.51167,0.901154 -0.93456,1.960534 -0.93525,4.146939 -0.56202,6.246399 0.11475,0.531167 0.21152,1.066535 0.34422,1.593502 0.50294,1.997168 1.32896,3.896963 1.83617,5.893446 z" />
    <path
       style="fill:#000000;stroke-width:0.264583"
       id="path43"
       d="m 129.78531,16.895336 c -0.96158,1.549031 -1.23158,3.35093 -1.4459,5.126717 -0.21062,2.042297 -0.28711,4.092985 0.005,6.128529 0.37391,1.850958 1.23559,3.570213 2.18011,5.191791 0.73693,1.216642 1.63555,2.276036 2.82093,3.06423 1.89316,1.073951 4.22532,3.092987 6.62469,2.167644 0.27503,-0.106069 0.52784,-0.262597 0.79176,-0.393896 1.5876,-1.023829 2.73431,-2.594073 3.73854,-4.167061 0.87249,-1.64919 1.21011,-3.508681 1.46306,-5.338984 0.20423,-1.926275 0.19545,-3.866882 0.20856,-5.801571 0.0376,-1.478112 0.0591,-2.9364 -0.24294,-4.387818 -0.10108,-0.464197 -0.20318,-0.925947 -0.33168,-1.38324 0,0 -3.57196,-1.681546 -3.57196,-1.681546 v 0 c 0.16387,0.444441 0.26028,0.897665 0.36649,1.35947 0.35549,1.484046 0.36139,2.806979 0.32528,4.331023 -0.003,1.91871 -0.002,3.842256 -0.19365,5.753432 -0.22603,1.779312 -0.5427,3.585202 -1.38339,5.189963 -0.96069,1.516679 -2.05233,3.046844 -3.62277,3.976545 -0.62048,0.261432 -0.79882,0.399626 -1.46054,0.451019 -1.63781,0.127198 -4.50907,-1.820738 0.94874,1.338868 -1.24723,-0.684561 -2.16055,-1.712232 -2.92739,-2.903881 -0.97426,-1.561878 -1.81729,-3.264458 -2.24976,-5.058812 -0.34455,-1.998761 -0.25752,-4.027261 -0.0675,-6.040692 0.20338,-1.702861 0.44032,-3.460298 1.42732,-4.91312 z" />
    <path
       style="fill:#000000;stroke-width:0.264583"
       id="path44"
       d="m 177.24594,38.613627 c -0.096,-3.634777 -0.10558,-7.271858 -0.10584,-10.907776 0.0446,-1.961103 0.0825,-3.925226 0.20025,-5.88383 0.0214,-0.355812 0.13019,-2.032861 0.27907,-2.49417 0.0438,-0.135669 0.18778,-0.21455 0.28167,-0.321825 -1.03637,-0.479399 -2.00242,-1.156914 -3.10911,-1.438197 -0.30813,-0.07832 0.39174,0.504802 0.54106,0.785487 0.24014,0.451393 0.42052,0.932181 0.6226,1.401847 0.88945,2.067222 1.68977,4.166137 2.48498,6.270869 1.42465,3.869797 3.20261,7.594458 4.74241,11.416928 0.74503,1.915369 0.8834,2.491446 4.17338,2.622674 0.40245,0.01606 -0.0289,-0.805093 -0.0336,-1.207833 -0.0154,-1.347142 0.0104,-2.870367 0.025,-4.20089 0.006,-5.829671 0.37356,-11.646339 1.03253,-17.436365 0.29026,-2.079627 0.69418,-4.14042 1.07341,-6.204882 0,0 -3.32971,-1.7695111 -3.32971,-1.7695111 v 0 c -0.3439,2.0899171 -0.70631,4.1772051 -0.98802,6.2767991 -0.60188,5.798097 -0.96667,11.61685 -1.08133,17.445872 -0.0527,1.38072 -0.12328,2.760768 -0.16784,4.141774 -0.0117,0.362612 -0.28257,0.843516 -0.0148,1.088297 0.99753,0.911866 2.30334,1.415738 3.48048,2.079755 0.41146,0.232108 -2.70478,-2.118532 -0.69696,-1.234054 -1.61114,-3.825628 -3.45119,-7.555573 -4.86945,-11.461988 -0.7709,-2.086767 -1.56366,-4.161439 -2.373,-6.233391 -0.1836,-0.470019 -0.35243,-0.945828 -0.54243,-1.413298 -0.12831,-0.315703 -0.12929,-0.74561 -0.41223,-0.935554 -1.22376,-0.821543 -2.63198,-1.327705 -3.94796,-1.991557 -0.10223,0.172788 -0.25365,0.324734 -0.30667,0.518366 -0.12651,0.461945 -0.21164,2.212365 -0.22695,2.565582 -0.0856,1.975457 -0.0878,3.954376 -0.13865,5.930711 -2.6e-4,3.599952 -0.009,7.20114 -0.10584,10.799918 z" />
    <path
       style="fill:#000000;stroke-width:0.264583"
       id="path45"
       d="m 194.72721,34.111898 c -1.25557,-2.373455 -1.58914,-5.012674 -1.76018,-7.654334 0.0874,-2.420401 0.35092,-4.886926 1.13807,-7.193176 0.3648,-1.06882 0.57262,-1.347187 1.10408,-2.300268 0.66221,-0.93841 1.32235,-2.293801 2.49527,-2.718645 0.13854,-0.05018 0.29199,-0.03988 0.43799,-0.05982 0.16656,0.02769 0.33962,0.02931 0.49968,0.08306 0.16786,0.05636 0.62652,0.330138 0.47222,0.243282 -0.97815,-0.550595 -1.93984,-1.133104 -2.94403,-1.63465 -0.16288,-0.08135 0.27824,0.235809 0.405,0.366513 0.43052,0.443935 0.49222,0.591448 0.85301,1.126694 1.06801,1.753453 1.35068,3.767846 1.66208,5.755767 0.33949,1.666234 0.32773,3.335482 0.13297,5.014031 -0.10407,1.243841 -0.32239,2.461826 -0.68817,3.653798 -0.29579,0.931733 -0.66754,1.833761 -1.09315,2.712847 -0.60603,0.898962 -1.50141,1.476417 -2.5039,1.838172 -0.1818,0.0024 -0.36533,0.03192 -0.54541,0.0069 -0.13999,-0.01947 -1.05912,-0.318241 -1.1652,-0.361069 -0.18735,-0.07563 -0.72016,-0.36575 -0.54553,-0.264136 3.42736,1.994365 3.75157,2.256911 2.50158,1.340683 -0.1107,-0.105616 -0.22141,-0.21123 -0.33211,-0.316846 0,0 -3.63592,-1.518394 -3.63592,-1.518394 v 0 c 0.10536,0.12333 0.21072,0.246661 0.31607,0.369988 1.47376,1.277469 0.55113,0.521203 4.22629,2.559301 0.50587,0.280533 1.25269,0.48078 1.83155,0.470242 0.20691,-0.0038 0.40894,-0.06371 0.61341,-0.09557 1.06308,-0.445188 2.01819,-1.106688 2.66088,-2.084136 0.44549,-0.893765 0.81315,-1.819487 1.12544,-2.768208 0.3642,-1.219663 0.59118,-2.460509 0.68916,-3.731795 0.20505,-1.713977 0.25011,-3.419541 -0.10974,-5.122136 -0.32555,-2.015152 -0.56835,-4.065709 -1.57079,-5.885608 -1.23922,-2.130018 -3.53259,-4.041454 -6.09659,-3.997278 -1.4992,0.506468 -2.25011,1.804989 -3.02675,3.101968 -0.19614,0.365294 -0.41552,0.719031 -0.58841,1.095883 -1.23108,2.68338 -1.47961,5.719776 -1.68333,8.622076 0.12359,2.607569 0.3439,5.305345 1.5525,7.667355 z" />
    <path
       style="fill:#000000;stroke-width:0.264583"
       id="path46"
       d="m 18.29028,52.343446 c -1.25332,0.264486 -2.562886,0.840761 -3.679659,1.47347 -1.720855,1.19103 -1.950284,2.715308 -2.010161,4.690867 0.09714,1.564068 0.253575,3.218114 1.502509,4.326038 0.229692,0.203761 0.501412,0.354531 0.752119,0.531796 3.213284,1.705047 3.002046,2.04701 5.291211,2.513018 1.176776,0.239559 2.375089,0.318331 3.552746,0.559708 0.227447,0.06792 0.463219,0.112485 0.682342,0.203758 0.193806,0.08073 0.732103,0.411414 0.5488,0.309054 -0.958726,-0.535365 -1.894495,-1.113864 -2.87507,-1.608076 -0.17346,-0.08742 0.303506,0.24375 0.440773,0.381188 0.356202,0.356642 0.499089,0.598402 0.791182,1.012475 0.811159,1.260629 1.169919,2.668876 1.37742,4.133554 0.1002,1.285933 0.328494,2.618462 -0.127457,3.857297 -0.64041,0.95082 -1.936724,1.175279 -2.976722,1.42563 -1.546309,0.288372 -3.121808,0.534916 -4.698283,0.457301 -0.699661,-0.12373 -1.327266,-0.41247 -1.945137,-0.749811 -0.259238,-0.141539 -1.030425,-0.577926 -0.771671,-0.435504 2.725985,1.500415 3.352394,1.97227 1.743206,0.858674 0,0 -3.608869,-1.421427 -3.608869,-1.421427 v 0 c 2.016892,1.426763 0.844476,0.627936 4.890839,3.002741 0.885777,0.519861 1.819549,0.959233 2.854512,1.055399 1.592841,0.0024 3.175119,-0.237506 4.732578,-0.560047 1.186796,-0.296642 2.56345,-0.579728 3.223752,-1.722191 0.481902,-1.309468 0.29301,-2.680496 0.173519,-4.044476 -0.167703,-1.512404 -0.504243,-2.96069 -1.280914,-4.288766 -0.26703,-0.419701 -0.429647,-0.707179 -0.748548,-1.086766 -1.371581,-1.632598 -3.506732,-2.585355 -5.538568,-3.132386 -1.165377,-0.207171 -2.358263,-0.285615 -3.510667,-0.560837 -0.334672,-0.07993 -1.249497,-0.51199 -0.992716,-0.282954 0.706692,0.630336 1.595098,1.021083 2.392647,1.531623 -0.259809,-0.148116 -0.538636,-0.266978 -0.779425,-0.444347 -1.363928,-1.004678 -1.518418,-2.498116 -1.66589,-4.063825 0.02883,-1.826998 0.235484,-3.247292 1.859202,-4.310221 1.11173,-0.597218 2.333757,-1.185614 3.604379,-1.284131 z" />
    <path
       style="fill:#000000;stroke-width:0.264583"
       id="path47"
       d="m 35.871549,76.198187 c 0.563764,-5.506252 0.956868,-11.025979 1.545135,-16.530294 0.254661,-2.649796 0.664607,-5.278784 1.041157,-7.912372 0,0 -3.42968,-1.793163 -3.42968,-1.793163 v 0 c -0.185812,2.690847 -0.536332,5.36829 -0.768935,8.055263 -0.552903,5.458404 -0.975749,10.938269 -1.85147,16.357446 z" />
    <path
       style="fill:#000000;stroke-width:0.264583"
       id="path48"
       d="m 31.322922,61.714231 c 0.31532,-0.04222 0.635733,-0.05616 0.945957,-0.126656 0.961446,-0.218464 2.429561,-0.73147 3.330017,-1.037061 1.618506,-0.549277 3.232205,-1.087122 4.869693,-1.577403 0.394994,-0.09439 0.789988,-0.188783 1.184982,-0.283173 0,0 -3.167809,-2.182019 -3.167809,-2.182019 v 0 c -0.387887,0.106696 -0.775774,0.213394 -1.163661,0.32009 -1.483868,0.472327 -1.544035,0.484397 -3.086238,1.006793 -1.688952,0.572108 -3.362394,1.20814 -5.128506,1.508479 -0.324741,0.05522 -0.65628,0.05762 -0.984422,0.08643 z" />
    <path
       style="fill:#000000;stroke-width:0.264583"
       id="path49"
       d="m 51.079809,77.160984 c -1.046136,-2.94604 -1.923303,-5.940994 -2.624552,-8.986959 -0.171866,-1.223489 -0.398447,-2.453918 -0.363914,-3.697708 0.06244,-2.249138 0.776219,-4.402571 1.591845,-6.471335 0.710779,-1.484299 1.346083,-2.985474 2.845718,-3.802166 0.162147,-0.05151 0.316783,-0.141864 0.486442,-0.154522 0.552021,-0.04118 5.962232,2.309696 -1.704827,-1.175059 -0.249635,-0.113462 0.42491,0.347239 0.626406,0.533222 0.222589,0.205455 0.429945,0.426821 0.644919,0.640231 0.891527,0.985488 1.676287,2.08066 2.108939,3.350472 0.320365,0.940255 0.363884,1.453816 0.532,2.445337 0.427162,3.077205 -0.01577,6.180672 -0.516189,9.220518 -0.274383,1.57925 -0.694071,3.139725 -1.16309,4.673086 -0.633156,1.38928 -1.499928,1.838746 -2.9392,2.135013 -0.390253,0.01037 -0.820254,0.05646 -1.202132,-0.07227 -0.2261,-0.07621 -0.844542,-0.444309 -0.636273,-0.327892 4.360273,2.43728 2.742748,1.690809 1.489721,0.3933 0,0 -3.595005,-1.509122 -3.595005,-1.509122 v 0 c 1.482249,1.728335 2.861974,2.260065 5.171948,3.5365 0.624358,0.345006 1.316818,0.306559 1.991577,0.206764 1.488226,-0.393822 2.507953,-1.031616 3.162665,-2.476794 0.189211,-0.615791 0.315034,-1.232382 0.471876,-1.856102 0.242213,-0.963224 0.569966,-1.90857 0.63559,-2.909385 0.460058,-3.077226 0.911212,-6.216362 0.56936,-9.327324 -0.125399,-0.86867 -0.205256,-1.667008 -0.458629,-2.509539 -0.394128,-1.310592 -1.161722,-2.447697 -2.035342,-3.482171 -1.777751,-1.865145 -2.041458,-1.860097 -5.181025,-3.565173 -0.569082,-0.309065 -1.217885,-0.16792 -1.758675,0.09425 -1.528572,0.978114 -2.16389,2.467334 -2.884273,4.081036 -0.793853,2.11932 -1.533798,4.3513 -1.619777,6.636721 -0.04523,1.202386 0.19058,2.579259 0.347755,3.76074 0.667285,3.008027 1.50531,5.968828 2.450309,8.901422 z" />
    <path
       style="fill:#000000;stroke-width:0.264583"
       id="path50"
       d="m 67.245375,78.414556 c -0.0081,-0.252738 -0.02914,-0.505386 -0.02437,-0.758208 0.02931,-1.556068 0.251788,-3.112236 0.369236,-4.662345 0.138631,-1.829686 0.192067,-2.952366 0.295672,-4.800798 0.142793,-3.440999 0.08925,-1.75404 0.164457,-5.060754 0,0 -3.287133,-1.68202 -3.287133,-1.68202 v 0 c -0.03877,3.305143 0.0096,1.621808 -0.15167,5.049803 -0.133172,2.111311 -0.152087,2.688712 -0.348866,4.757732 -0.146825,1.543783 -0.403587,3.079157 -0.521631,4.625266 -0.01863,0.243882 -0.01625,0.488913 -0.02437,0.733369 z" />
    <path
       style="fill:#000000;stroke-width:0.264583"
       id="path51"
       d="m 65.300772,56.415619 c 2.068232,-0.629563 4.101097,-1.417299 6.262272,-1.647317 0.718301,-0.01471 1.405911,0.121081 2.058456,0.42128 0.184856,0.08504 0.712874,0.392724 0.536112,0.291931 -3.152336,-1.79751 -3.729557,-2.264836 -2.311078,-1.206016 1.217343,1.047975 2.291416,2.213933 3.229113,3.513762 0.552966,0.788847 0.85757,1.709507 1.117515,2.628167 0.407726,1.007433 0.429432,2.047941 0.404908,3.116689 -0.09537,0.730752 -0.112869,1.525412 -0.448524,2.201293 -0.109625,0.220742 -0.430819,0.59994 -0.575842,0.781489 -0.920599,0.91127 -1.968085,1.551242 -3.20352,1.925297 -0.254642,0.04941 -0.509283,0.09881 -0.763926,0.148222 0,0 3.201054,2.226469 3.201054,2.226469 v 0 c 0.265081,-0.05914 0.530161,-0.118288 0.795242,-0.17743 1.278501,-0.43919 2.397196,-1.134015 3.3469,-2.105663 0.215384,-0.27056 0.484171,-0.578411 0.639807,-0.892082 0.354984,-0.715439 0.38548,-1.544759 0.494737,-2.318541 0.03867,-1.086379 0.104992,-2.180529 -0.328092,-3.206488 -0.244279,-0.961459 -0.564007,-1.922526 -1.083669,-2.771968 -0.279088,-0.378026 -0.536075,-0.772398 -0.823783,-1.143905 -0.701768,-0.906174 -1.597586,-1.627846 -2.370924,-2.468769 -1.620617,-1.380101 -0.588279,-0.554604 -4.384854,-2.698311 -0.818843,-0.462354 -1.778479,-0.56643 -2.699147,-0.504917 -2.160863,0.343384 -4.203557,1.12963 -6.327201,1.633029 z" />
    <path
       style="fill:#000000;stroke-width:0.264583"
       id="path52"
       d="m 118.91623,59.015846 c -1.69125,-0.325607 -3.40826,-0.451948 -5.12404,-0.562671 -1.55081,-0.13335 -2.53688,-0.07622 -3.68175,1.03617 -0.92487,1.135329 -1.17912,2.594379 -1.28349,4.01362 -0.14578,1.578155 0.37199,2.750169 1.1869,4.052107 0.37716,0.547225 0.81921,1.058138 1.40744,1.38825 2.70411,1.517537 3.20025,2.245601 5.57945,2.378634 1.76129,-0.071 3.48188,-0.56732 5.17524,-1.030029 1.26123,-0.362177 2.51871,-0.859895 3.84366,-0.885989 0.76791,0.06912 1.48769,0.361641 2.15818,0.730375 0.20338,0.11185 0.80385,0.464359 0.60002,0.353335 -0.91078,-0.496099 -1.81408,-1.005798 -2.72112,-1.508697 1.25611,0.940877 2.18673,2.161937 2.94721,3.51681 0.79297,1.321329 1.23718,2.766383 1.50063,4.273156 0.2015,1.437153 -0.26728,2.703211 -1.06171,3.870042 -0.88522,1.424077 -1.78852,1.793568 -3.29656,2.421347 -1.88224,0.663911 -3.87213,0.980512 -5.84584,1.237163 -2.21635,0.318995 -4.43929,0.05021 -6.61196,-0.417923 -1.61613,-0.465867 -3.20185,-1.094086 -4.69348,-1.875507 -0.3261,-0.170828 -1.2877,-0.712422 -0.95549,-0.553804 0.78942,0.376925 1.55266,0.806407 2.329,1.209611 -0.9438,-0.779904 -1.57236,-1.799444 -2.19587,-2.830692 0,0 -3.5222,-1.563719 -3.5222,-1.563719 v 0 c 0.6155,1.063101 1.23184,2.125212 2.14127,2.97394 3.18896,1.978102 6.26058,4.080761 9.95784,4.960541 2.21444,0.434811 4.47229,0.682532 6.71982,0.335076 1.99483,-0.283395 4.00535,-0.616053 5.9,-1.322546 1.54141,-0.646486 2.57085,-1.115531 3.45428,-2.590311 0.83199,-1.248264 1.3504,-2.609789 1.18619,-4.139173 -0.24193,-1.539039 -0.64448,-3.033416 -1.43751,-4.390583 -0.78626,-1.442284 -1.59973,-2.61815 -2.88376,-3.680148 -1.31753,-0.79421 -2.63002,-1.596837 -3.95259,-2.382628 -0.8886,-0.527953 -1.86579,-0.918544 -2.91181,-0.917327 -1.32832,0.134832 -2.58475,0.60484 -3.86238,0.970196 -1.66265,0.448651 -3.35353,0.958947 -5.09045,0.920123 -0.27371,-0.03487 -0.55063,-0.05012 -0.82111,-0.104622 -0.23644,-0.04764 -0.89061,-0.342125 -0.69511,-0.20088 0.86111,0.62215 1.81805,1.099712 2.71879,1.662973 0.18063,0.112958 -0.38241,-0.19104 -0.55797,-0.31173 -0.47439,-0.326115 -0.55209,-0.480978 -0.91924,-0.920437 -0.8125,-1.231779 -1.42634,-2.296602 -1.30703,-3.835046 0.0687,-1.320908 0.297,-2.690619 1.16528,-3.740896 1.07624,-0.966086 2.07644,-0.895189 3.46249,-0.79892 1.73398,0.114149 3.46197,0.287322 5.16874,0.624703 z" />
    <path
       style="fill:#000000;stroke-width:0.264583"
       id="path53"
       d="m 142.60421,62.704426 c -0.14753,2.91047 0.001,5.835147 0.0573,8.749049 0.10451,3.039737 0.25178,6.133121 1.18918,9.052602 0.1459,0.454411 0.34256,0.890931 0.51384,1.336397 0.19479,0.362656 0.36438,0.740026 0.58437,1.087975 1.24668,1.971823 3.77275,2.981809 5.81798,3.682494 0.7489,0.256575 2.94519,-0.565957 3.48029,-0.731282 3.47714,-1.829927 6.42117,-4.562919 8.4502,-7.926358 0,0 -3.33092,-1.923986 -3.33092,-1.923986 v 0 c -1.46759,2.637747 -3.59874,4.993047 -6.15274,6.630066 -0.6555,0.420156 -1.37355,0.73365 -2.06032,1.100474 -0.63176,0.162721 -1.2498,0.393581 -1.89529,0.488164 -0.50904,0.07459 -1.73614,-0.461288 -1.54335,0.01572 0.33686,0.833475 1.45691,1.053576 2.18733,1.577637 0.25513,0.183054 -0.53191,-0.340353 -0.76147,-0.554604 -0.65566,-0.611934 -0.84539,-1.067366 -1.3088,-1.844659 -0.18633,-0.436761 -0.4013,-0.862386 -0.55899,-1.31028 -1.01166,-2.873375 -1.14979,-5.957285 -1.24268,-8.971063 -0.0412,-2.859606 -0.20147,-5.738683 0.0515,-8.5896 z" />
    <path
       style="fill:#000000;stroke-width:0.264583"
       id="path54"
       d="m 150.00925,65.976446 c 2.39833,-0.956984 4.9018,-1.617141 7.37634,-2.342499 0,0 -3.06935,-2.098476 -3.06935,-2.098476 v 0 c -2.52226,0.745408 -5.0655,1.423828 -7.56169,2.254213 z" />
    <path
       style="fill:#000000;stroke-width:0.264583"
       id="path55"
       d="m 149.1165,74.376131 c 2.42464,-0.680479 4.75901,-1.64697 7.09182,-2.586702 0,0 -3.13065,-2.096129 -3.13065,-2.096129 v 0 c -2.3458,0.946475 -4.71208,1.906817 -7.19562,2.429052 z" />
    <path
       style="fill:#000000;stroke-width:0.264583"
       id="path56"
       d="m 170.95636,79.159422 c 0.93508,-4.509871 2.244,-8.930674 3.435,-13.37696 0.66002,-1.935718 0.96125,-3.993748 1.67104,-5.914332 0.12193,-0.329938 0.22953,-0.683742 0.45939,-0.950005 0.0967,-0.112051 0.56604,-0.01685 0.43553,-0.08669 -0.94345,-0.504909 -1.9683,-0.840195 -2.95245,-1.260292 0.16479,0.426275 0.36471,0.840589 0.49438,1.278829 0.36479,1.23285 0.58576,2.704415 0.77959,3.962598 0.301,1.953967 0.52756,3.918064 0.78248,5.878293 0.14211,1.308979 0.35549,2.608257 0.56464,3.907639 0.083,0.515385 0.24552,1.123987 0.23772,1.655842 1.21836,0.373907 2.38085,1.145321 3.65507,1.121725 0.39649,-0.0073 0.005,-0.793104 0.0111,-1.189614 0.009,-0.600245 10e-4,-1.201177 0.0336,-1.800619 0.12767,-2.371035 0.53522,-4.699313 0.91956,-7.038205 0.42391,-2.081062 0.79758,-4.173048 1.22959,-6.252459 0.21883,-1.053309 0.39247,-2.062292 0.95964,-2.981193 -1.07212,-0.423164 -2.0642,-1.301813 -3.21635,-1.269492 -0.4611,0.01294 0.23105,0.894972 0.29805,1.35136 0.10728,0.730842 0.15986,1.468786 0.22394,2.204677 0.22203,2.549872 0.38069,5.104686 0.60552,7.654629 0.13666,1.859809 0.37289,3.709585 0.60215,5.559475 0.11211,0.904666 0.15854,1.834502 0.41467,2.711646 1.24062,0.5975 2.36998,1.530651 3.72185,1.792504 0.35554,0.06887 0.32765,-0.646723 0.46629,-0.981281 0.20409,-0.492522 0.38096,-0.995976 0.561,-1.497788 0.81349,-2.267291 1.45558,-4.572831 2.10484,-6.891229 0.69804,-2.41523 1.45276,-4.81312 2.14272,-7.230718 0.0771,-0.270018 0.81443,-2.972173 0.98333,-3.408191 0.12485,-0.322278 0.32371,-0.610745 0.48557,-0.916117 1.79775,-0.265356 -1.54443,-1.550926 -2.24874,-1.10268 -0.63854,0.406389 0.63286,1.375471 0.92546,2.073518 1.3983,3.335941 2.71061,6.706974 4.11721,10.040319 1.17126,2.707849 2.33366,5.420598 3.40892,8.16838 0.31215,0.797703 0.67174,1.638102 0.86167,2.482504 0,0 3.57266,1.701461 3.57266,1.701461 v 0 c -0.28317,-0.897737 -0.69287,-1.768906 -1.06296,-2.630519 -1.18446,-2.75758 -2.392,-5.505212 -3.59425,-8.25505 -1.38076,-3.298053 -1.58883,-3.719857 -2.84528,-7.01013 -0.3725,-0.975464 -0.72678,-1.957793 -1.08551,-2.938402 -0.2559,-0.699519 -0.23222,-1.574718 -0.75838,-2.101945 -3.46995,-3.477009 -2.87744,-3.639765 -4.64992,-2.337652 -0.15447,0.336018 -0.34317,0.658328 -0.46342,1.008057 -0.11097,0.322747 -0.86663,3.327987 -0.90014,3.453522 -0.64915,2.431811 -1.39796,4.834352 -2.11257,7.247278 -0.65991,2.297888 -1.30598,4.573731 -2.19919,6.794291 -0.19344,0.480896 -0.39237,0.960075 -0.61325,1.428996 -0.11565,0.245507 -0.58716,0.519999 -0.39518,0.711803 0.88666,0.885823 2.10333,1.363605 3.15499,2.045404 -0.0795,-0.138721 -0.19464,-0.262416 -0.23855,-0.416166 -0.20941,-0.733335 -0.23602,-1.506966 -0.34516,-2.261764 -0.26909,-1.860978 -0.55316,-3.7212 -0.71073,-5.596051 -0.24436,-2.543786 -0.43235,-5.083154 -0.57683,-7.634623 -0.0413,-0.72911 -0.0656,-1.459294 -0.11983,-2.187554 -0.0354,-0.475655 0.19671,-1.094642 -0.14913,-1.423128 -1.06511,-1.011679 -2.50893,-1.528754 -3.76339,-2.29313 -0.50677,1.010549 -0.67797,2.05351 -0.88327,3.165178 -0.38756,2.098525 -0.74222,4.203367 -1.16055,6.296293 -0.50551,2.948828 -0.94972,5.814925 -1.12817,8.803703 -0.0224,0.375184 -0.34012,0.866614 -0.0677,1.125524 1.0025,0.952656 2.35729,1.446871 3.53593,2.170308 -0.0581,0.02027 -0.14337,0.113983 -0.17419,0.06077 -0.10234,-0.176668 -0.0961,-0.396973 -0.13649,-0.597098 -0.0599,-0.296609 -0.10947,-0.595207 -0.16438,-0.892779 -0.24127,-1.307324 -0.48789,-2.61443 -0.65105,-3.93456 -0.53258,-3.762195 -0.87638,-7.576341 -1.84815,-11.25705 -1.30638,-0.813168 -2.52557,-1.78694 -3.91914,-2.439501 -0.37082,-0.173643 -0.72636,0.713883 -0.94587,1.392614 -0.63438,1.961517 -0.91804,4.027794 -1.5401,5.993082 -1.14874,4.435403 -2.42377,8.836319 -3.71223,13.232252 z" />
    <path
       style="fill:#000000;stroke-width:0.264583"
       id="path57"
       d="m 121.29405,94.640523 c 3.31828,-0.347326 6.63315,-0.697111 9.94312,-1.123127 11.69773,-1.606934 23.47807,-2.457635 35.25503,-3.225895 8.15425,-0.407879 16.31106,-0.876959 24.41707,-1.877084 2.20713,-0.35565 4.445,-0.50809 6.64284,-0.91726 0,0 -3.21859,-2.2465 -3.21859,-2.2465 v 0 c -2.13636,0.422346 -4.31125,0.630271 -6.45339,1.023588 -7.948,1.13615 -15.95741,1.732917 -23.97186,2.166355 -11.88944,0.827236 -23.78101,1.678684 -35.62968,2.980103 -3.40309,0.368813 -6.80844,0.673936 -10.22089,0.937924 z" />
    <path
       style="fill:#000000;stroke-width:0.264583"
       id="path58"
       d="m 20.044416,138.58636 c 2.466225,-3.01912 4.64506,-6.26206 6.843857,-9.47773 0.904626,-1.44777 1.818661,-2.89264 2.628852,-4.39651 0.416904,-0.77386 0.716283,-1.53989 1.29353,-2.20463 0.02133,-0.51391 0.930669,0.3345 0.698635,0.24913 -0.907995,-0.33408 -1.681044,-1.24837 -2.64685,-1.19111 -0.535913,0.0318 0.654236,0.85177 0.963002,1.29095 0.85163,1.21132 1.579641,2.39064 2.375701,3.64237 1.19574,1.80077 2.297454,3.66132 3.472588,5.47521 0.674126,1.04055 1.318582,2.07599 2.199409,2.95033 1.316189,0.55448 2.538744,1.43496 3.948563,1.66345 0.352827,0.0572 0.372914,-0.6124 0.516271,-0.93983 0.209777,-0.47912 0.36831,-0.97921 0.540231,-1.47319 0.735933,-2.11456 1.460198,-4.23136 2.214616,-6.33983 0.7651,-1.94226 1.400873,-3.93187 2.124302,-5.88921 0.149648,-0.40489 0.43761,-1.93431 1.324557,-1.93135 0.382098,0.001 0.684109,0.34058 1.026163,0.51087 -0.542327,-0.1903 -1.788533,-1.12248 -1.626979,-0.57091 0.265803,0.9075 1.374236,1.29993 2.037826,1.97362 0.709616,0.72041 1.406131,1.45429 2.080726,2.20759 1.639205,1.83047 3.15695,3.76612 4.62928,5.73096 1.169439,1.62396 2.311222,3.28787 3.17677,5.0976 0.449281,0.96654 0.95986,1.90747 1.349414,2.90042 0.383498,1.67588 -0.472067,1.07386 3.628419,2.12748 0.22954,0.059 -0.05845,-0.4708 -0.07024,-0.7075 -0.0653,-1.31112 -0.01397,-1.50234 0.06021,-2.92685 0.318019,-3.63273 0.690788,-7.26113 1.043451,-10.89106 0.135932,-1.398 0.272716,-2.79965 0.476205,-4.18999 0.131371,-0.8976 0.18946,-1.56455 0.679595,-2.32426 0.181309,0.14919 0.766078,0.52361 0.543931,0.44757 -0.726289,-0.2486 -1.601806,-1.571 -2.086184,-0.97546 -0.47157,0.5798 1.098878,1.0149 1.61272,1.55759 2.190789,2.31379 4.122835,4.88497 6.105488,7.37346 2.205267,2.81628 4.363328,5.66974 6.499381,8.5388 0,0 3.445772,1.48322 3.445772,1.48322 v 0 c -2.214269,-2.88236 -4.44558,-5.75164 -6.674337,-8.6228 -0.837689,-1.06294 -3.261995,-4.15099 -4.163179,-5.24977 -0.358399,-0.43697 -2.640095,-3.19944 -3.290128,-3.67258 -1.440424,-1.04841 -2.959233,-1.99705 -4.534681,-2.82888 -0.252941,-0.13355 -0.571939,-0.0123 -0.857906,-0.0184 -0.101163,0.18425 -0.232473,0.35491 -0.30349,0.55274 -0.165444,0.46088 -0.315892,1.51834 -0.374272,1.95631 -0.18679,1.40131 -0.318675,2.8112 -0.441063,4.2192 -0.334693,3.63528 -0.655592,7.2711 -1.043755,10.90128 -0.145311,1.6468 -0.156765,1.43746 -0.190799,2.91139 -0.0054,0.23398 -0.189701,0.56269 -0.0019,0.70214 1.091158,0.80944 2.354091,1.36231 3.578458,1.95116 0.197721,0.0951 -0.383029,-1.00739 -0.07316,-0.65412 -0.359847,-1.01369 -0.8768,-1.96676 -1.347843,-2.93174 -0.839063,-1.89612 -2.119326,-3.5684 -3.313491,-5.24852 -2.120712,-2.79097 -4.355579,-5.48442 -6.775135,-8.02311 -0.63663,-0.66797 -1.202703,-1.41956 -1.938949,-1.97583 -1.549268,-1.17055 -3.25475,-2.11855 -4.882126,-3.17782 -0.420066,-0.0732 -0.845746,-0.31981 -1.260197,-0.21959 -0.899477,0.2175 -1.134576,1.5744 -1.34362,2.17789 -0.683633,1.97356 -1.303388,3.96996 -2.068706,5.91475 -0.754745,2.09578 -1.49252,4.20405 -2.299446,6.28048 -0.181398,0.46678 -0.362762,0.93462 -0.579049,1.3863 -0.113352,0.23672 -0.586816,0.48219 -0.407426,0.67377 0.807881,0.8628 1.947256,1.34036 2.920886,2.01053 -0.210174,-0.16048 -0.449749,-0.28845 -0.630526,-0.48145 -0.380389,-0.40611 -1.521084,-2.07896 -1.753457,-2.42785 -1.203508,-1.807 -2.304397,-3.6799 -3.507084,-5.48747 -0.713843,-1.1478 -1.538137,-2.49161 -2.286669,-3.6277 -0.287653,-0.43659 -0.483283,-0.96053 -0.885346,-1.29475 -1.245865,-1.03564 -2.621881,-1.90875 -3.997651,-2.76432 -0.446939,-0.27794 -0.650515,-0.0252 -0.983824,0.18563 -0.541723,0.72385 -0.837469,1.50702 -1.242032,2.31481 -0.759566,1.51663 -1.636654,2.9706 -2.522131,4.4158 -2.171471,3.22608 -4.361264,6.4772 -6.997519,9.34679 z" />
    <path
       style="fill:#000000;stroke-width:0.264583"
       id="path59"
       d="m 92.539112,139.61221 c -0.794162,-1.99728 -1.734494,-3.93448 -2.541206,-5.92652 -0.750036,-1.8521 -0.823622,-2.18468 -1.434645,-4.05635 -0.722982,-2.65588 -0.887614,-5.46008 0.156009,-8.05689 0.151707,-0.37749 0.358214,-0.73056 0.537318,-1.09584 0.749615,-1.16437 1.774648,-2.51992 3.293568,-2.6113 0.211857,-0.0127 0.423439,0.0297 0.635161,0.0445 0.547574,0.14393 0.717876,0.15677 1.225225,0.41759 0.205137,0.10546 0.794758,0.46817 0.591775,0.35863 -4.166888,-2.24861 -2.888305,-1.80398 -1.459886,-0.34444 1.031743,1.14689 1.745649,2.51506 2.393997,3.90197 0.678532,1.48841 0.911027,3.09679 1.043218,4.7106 0.0804,1.56682 0.193501,3.13155 -0.1612,4.66932 -0.357166,1.23144 -1.006594,2.34119 -2.00842,3.1452 -0.732097,0.58913 -1.514277,1.04063 -2.426557,1.26779 -0.59381,0.1458 -1.157018,0.13014 -1.74557,-7.9e-4 0,0 3.16367,2.3813 3.16367,2.3813 v 0 c 0.620242,0.0757 1.235324,0.0159 1.839278,-0.14908 0.931748,-0.29601 1.74721,-0.79572 2.502315,-1.41613 1.028295,-0.89548 1.720014,-2.06769 2.114198,-3.3738 0.15157,-0.61991 0.2386,-0.85579 0.2767,-1.49944 0.0645,-1.09001 -0.0661,-2.19185 -0.0701,-3.28157 -0.11038,-1.65069 -0.33147,-3.29797 -0.983718,-4.83445 -0.630155,-1.42436 -1.337842,-2.82032 -2.345843,-4.02088 -1.700999,-1.86969 -2.267757,-1.90193 -5.176679,-3.61137 -0.600427,-0.35284 -1.244822,-0.56683 -1.939647,-0.6243 -0.228124,0.0125 -0.459513,-0.003 -0.684371,0.0375 -1.58508,0.28503 -2.63062,1.65244 -3.418499,2.93639 -0.182793,0.38319 -0.392671,0.7546 -0.548376,1.14957 -1.055676,2.67792 -0.915587,5.57103 -0.181692,8.31059 0.594482,1.82653 0.711883,2.27984 1.424755,4.08747 0.770033,1.95257 1.690508,3.84401 2.343158,5.84253 z" />
    <path
       style="fill:#000000;stroke-width:0.264583"
       id="path60"
       d="m 112.85488,139.29379 c -0.73529,-3.6685 -1.2047,-7.3852 -1.71239,-11.09044 -0.47483,-3.35566 -0.7361,-6.73415 -0.86008,-10.11933 -0.01,-0.37122 -0.0192,-0.74244 -0.0288,-1.11365 0,0 -3.44305,-1.74125 -3.44305,-1.74125 v 0 c 0.013,0.37496 0.0259,0.74991 0.0389,1.12486 0.17801,3.41436 0.46721,6.8224 0.95829,10.2074 0.50789,3.65869 0.9939,7.32267 1.50922,10.97878 z" />
    <path
       style="fill:#000000;stroke-width:0.264583"
       id="path61"
       d="m 101.14416,114.97277 c 2.44446,0.28845 4.84885,0.90799 7.24977,1.44562 2.91143,0.72256 5.85548,1.31386 8.83327,1.68079 0.85505,0.12831 1.71586,0.0859 2.57453,0.0459 0,0 -3.16988,-2.2829 -3.16988,-2.2829 v 0 c -0.83705,0.0309 -1.67485,0.0504 -2.5071,-0.0754 -2.94352,-0.3581 -5.85349,-0.93 -8.72969,-1.65127 -2.45788,-0.56559 -4.91432,-1.20434 -7.419586,-1.519 z" />
    <path
       style="fill:#000000;stroke-width:0.264583"
       id="path62"
       d="m 128.23628,139.77964 c -0.2598,-2.66711 -0.33154,-5.34697 -0.38861,-8.02454 -0.0301,-2.89691 0.0195,-5.78843 -0.29404,-8.67164 -0.0486,-0.27526 -0.0972,-0.55052 -0.1458,-0.82578 0,0 -3.50431,-1.69882 -3.50431,-1.69882 v 0 c 0.0611,0.27027 0.12218,0.54054 0.18327,0.81081 0.38925,2.88118 0.37183,5.77607 0.39668,8.67956 0.047,2.64477 0.0787,5.29071 0.22412,7.93245 z" />
    <circle
       id="path63"
       style="fill:#000000;stroke:#000000;stroke-width:0.264583"
       cx="124.22688"
       cy="115.62079"
       r="0.049840055" />
    <path
       style="fill:#000000;stroke-width:0.264583"
       id="path64"
       d="m 126.13886,117.17989 c 1.02791,-0.93718 1.78696,-2.10215 2.69317,-3.14524 0.44471,-0.4062 0.91106,-0.78088 1.40073,-1.13036 0,0 -3.32077,-2.10359 -3.32077,-2.10359 v 0 c -0.49776,0.38046 -0.9799,0.77796 -1.42922,1.21593 -0.89197,1.04708 -1.64609,2.21133 -2.72031,3.0942 z" />
    <path
       style="fill:#000000;stroke-width:0.264583"
       id="path65"
       d="m 136.80594,137.46647 c -0.43656,-2.78522 -0.0556,-5.58289 0.35742,-8.34373 0.69812,-3.61142 1.56158,-7.18876 2.68979,-10.69032 0.7105,-1.70541 1.38199,-3.51521 2.93405,-4.62105 0.66815,-0.2678 1.40046,-0.15555 2.03662,0.16779 0.20175,0.10254 0.77196,0.47129 0.5708,0.36761 -0.9243,-0.47643 -1.82827,-0.99131 -2.7424,-1.48696 1.70553,1.34617 2.65665,3.21064 3.35851,5.21889 0.65589,2.11794 0.75459,4.33651 0.82176,6.53541 0.0892,2.23771 -0.57491,4.36799 -1.2095,6.48358 -0.62799,1.86716 -1.41978,3.66349 -2.27817,5.43374 -0.6021,1.09111 -1.43977,1.94214 -2.59417,2.41351 -0.87983,0.30367 -1.74127,0.17114 -2.55451,-0.24269 -1.99674,-1.11669 2.27782,1.27398 2.30191,1.2859 0.20637,0.10211 -0.35957,-0.28814 -0.53032,-0.44261 -0.59462,-0.5379 -1.01283,-1.08782 -1.43765,-1.76551 -0.44201,-0.85232 -0.68363,-1.77653 -0.9232,-2.69906 0,0 -3.50495,-1.67667 -3.50495,-1.67667 v 0 c 0.23875,0.94739 0.48354,1.89486 0.87763,2.79305 0.1391,0.26747 0.25403,0.54897 0.41731,0.80241 1.26854,1.96891 4.0175,3.14112 5.88654,4.14067 0.91833,0.32032 1.83794,0.38114 2.74947,-0.017 1.18334,-0.5816 2.07879,-1.50411 2.69873,-2.67216 0.84205,-1.8005 1.64326,-3.61496 2.28292,-5.49977 0.6382,-2.15286 1.32396,-4.31997 1.26341,-6.59352 -0.0526,-2.23306 -0.15224,-4.48653 -0.78369,-6.64474 -0.66433,-2.04192 -1.55135,-3.97447 -3.21783,-5.40073 -1.30833,-0.80831 -2.60645,-1.6334 -3.925,-2.42493 -0.90316,-0.54217 -1.9409,-0.69293 -2.88284,-0.17204 -1.56429,1.26181 -2.22616,3.06179 -2.95691,4.88391 -1.08807,3.53808 -1.92206,7.14318 -2.66249,10.76898 -0.45579,2.75977 -0.86184,5.54361 -0.58861,8.34682 z" />
    <path
       style="fill:#000000;stroke-width:0.264583"
       id="path66"
       d="m 159.35612,137.20877 c 0.68292,-3.22666 2.2515,-6.15548 3.66006,-9.10785 1.38978,-3.04678 2.72756,-6.13291 3.60428,-9.37079 0.24332,-1.65954 0.25611,-3.37293 -0.29491,-4.96939 -0.68859,-1.40308 -0.54053,-1.36453 -3.66011,-1.64588 -0.33251,-0.03 0.24625,0.62088 0.38295,0.92546 0.79506,1.77154 1.60568,3.53545 2.38915,5.31295 1.71563,4.02495 3.19128,8.1505 4.59564,12.29317 0.52759,1.6961 1.06343,3.39096 1.3438,5.14807 0.1928,1.54059 0.0876,1.63607 3.60999,1.88607 0.40954,0.0291 0.0496,-0.8202 0.10067,-1.22759 0.0884,-0.7057 0.2122,-1.40651 0.31743,-2.1099 0.53576,-3.58109 0.38107,-2.54613 0.93543,-6.3767 1.01786,-6.78502 1.40659,-13.63943 1.76995,-20.4839 0.0522,-1.58537 0.23023,-3.15215 0.53396,-4.70615 0,0 -3.40696,-1.81064 -3.40696,-1.81064 v 0 c -0.24714,1.60427 -0.37091,3.21652 -0.38043,4.84205 -0.20586,6.85384 -0.60508,13.71113 -1.66535,20.49336 -0.45478,2.80189 -0.96674,5.57749 -1.50897,8.36245 -0.0762,0.39154 -0.48758,0.89755 -0.20491,1.17899 0.96167,0.95747 2.27309,1.49619 3.49165,2.09341 0.12544,0.0615 -0.0434,-0.27601 -0.065,-0.41401 -0.28877,-1.80281 -0.86219,-3.53155 -1.42802,-5.26347 -1.47139,-4.15395 -3.01498,-8.28672 -4.6845,-12.36495 -0.56907,-1.34511 -1.10298,-2.70496 -1.67697,-4.04797 -0.17015,-0.3981 -0.37524,-0.78059 -0.54694,-1.17802 -0.12348,-0.28581 -0.0865,-0.68729 -0.33816,-0.87067 -1.14865,-0.83718 -2.44099,-1.4639 -3.71887,-2.08624 -0.14307,-0.0697 0.17254,0.26743 0.25881,0.40115 0.65226,1.50065 0.62623,3.1781 0.46387,4.78338 -0.79718,3.24219 -2.07258,6.33655 -3.45132,9.37134 -1.42855,2.95775 -3.00757,5.87038 -3.90209,9.04758 z" />
    <path
       style="fill:#000000;stroke-width:0.264583"
       id="path67"
       d="m 95.339698,25.911847 c -0.963229,0.402348 -1.933276,0.78699 -2.843385,1.301472 -0.579456,0.387099 -1.201126,0.692121 -1.775629,1.087416 0,0 3.317304,2.120895 3.317304,2.120895 v 0 c 0.570177,-0.378677 1.178795,-0.688282 1.754206,-1.058987 0.900011,-0.48478 1.845365,-0.886224 2.813708,-1.213922 z" />
    <path
       style="fill:#000000;stroke-width:0.264583"
       id="path68"
       d="m 93.230754,17.185816 c 1.189353,-0.341638 2.410225,-0.541091 3.647062,-0.54438 0.624776,0.08419 1.27141,0.12148 1.867305,0.348849 1.072303,0.409147 4.182969,2.323421 -1.66038,-1.004711 0.70444,0.467315 0.371224,0.225048 1.002623,0.722689 0,0 3.639196,1.469085 3.639196,1.469085 v 0 c -0.61861,-0.544836 -0.28991,-0.28332 -0.98939,-0.780412 -0.995631,-0.578011 -3.419249,-2.293143 -5.109714,-2.790842 -0.620816,-0.182778 -1.276712,-0.219353 -1.918028,-0.255653 -1.258856,0.05301 -2.486491,0.282154 -3.71503,0.553477 z" />
    <path
       style="fill:#000000;stroke-width:0.264583"
       id="path2"
       d="m 88.28171,244.84133 c -0.118782,0.24227 -0.256082,0.47631 -0.356341,0.72681 -0.384106,0.9597 -1.169628,3.29763 -1.455719,4.1558 -0.813654,2.44069 -1.591881,4.88954 -2.330386,7.35384 -1.019273,3.34366 -1.971977,6.70493 -2.729074,10.11805 -0.547928,2.3055 -1.106186,4.60851 -1.715648,6.8985 -0.303909,1.46135 -0.615884,2.91328 -1.05088,4.3424 -0.355047,0.87389 -0.165701,0.46826 -0.556263,1.22237 0,0 3.40801,1.94075 3.40801,1.94075 v 0 c 0.388705,-0.80174 0.196552,-0.37418 0.568148,-1.28641 0.469456,-1.42909 0.768104,-2.89319 1.046348,-4.36967 0.568055,-2.30992 1.113594,-4.62492 1.673958,-6.93674 0.73239,-3.42016 1.59303,-6.80839 2.589358,-10.16201 1.113509,-3.77893 2.221484,-7.78581 3.934007,-11.34026 0.11828,-0.2455 0.270984,-0.47287 0.406474,-0.7093 z" />
    <path
       style="fill:#000000;stroke-width:0.264583"
       id="path3"
       d="m 78.02106,278.17765 c -2.547813,-0.76597 -5.119751,-1.44703 -7.680029,-2.16937 -1.506942,-0.44818 -2.99788,-0.9602 -4.431995,-1.60518 0,0 3.052958,2.41335 3.052958,2.41335 v 0 c 1.431285,0.58652 2.898198,1.08386 4.386686,1.50563 2.603804,0.73039 5.212154,1.44503 7.793482,2.25267 z" />
    <path
       style="fill:#000000;stroke-width:0.264583"
       id="path4"
       d="m 89.236692,245.0057 c 0.895741,3.00003 1.874319,5.96956 2.702274,8.99049 0.805749,3.27343 1.611545,6.54591 2.289485,9.84862 0.375173,2.06435 0.685702,4.13947 1.051152,6.20547 0.344914,1.8605 0.500679,3.74616 0.591759,5.63367 0.15893,1.70643 1.160098,3.15349 1.990744,4.60396 0,0 3.555214,1.58147 3.555214,1.58147 v 0 c -0.58979,-0.99788 -0.30294,-0.48686 -0.85897,-1.5339 -0.52493,-0.91495 -1.119508,-1.81112 -1.201819,-2.8979 -0.101034,-1.90553 -0.273148,-3.80897 -0.598377,-5.69058 -0.36368,-2.07552 -0.687776,-4.15705 -1.070546,-6.22914 -0.716894,-3.32438 -1.589286,-6.61007 -2.381848,-9.91656 -0.208574,-0.78465 -0.835724,-3.16607 -1.074661,-3.98093 -0.478771,-1.63276 -1.090964,-3.22997 -1.438574,-4.89976 z" />
    <path
       style="fill:#000000;stroke-width:0.264583"
       id="path5"
       d="m 102.23729,281.0469 c 1.67802,-0.053 3.3584,0.033 5.03418,-0.0708 1.75658,-0.15864 3.55086,-0.40738 5.08003,-1.32916 0,0 -3.28416,-2.12799 -3.28416,-2.12799 v 0 c -1.50112,0.86802 -3.25498,1.05148 -4.95947,1.1847 -1.68849,0.0779 -3.38028,0.0332 -5.06998,0.0188 z" />
  </g>
</svg>
