<?xml version="1.0" encoding="UTF-8" standalone="no"?>
<!-- Created with Inkscape (http://www.inkscape.org/) -->

<svg
   width="210mm"
   height="297mm"
   viewBox="0 0 210 297"
   version="1.1"
   id="svg1"
   inkscape:version="1.4.2 (f4327f4, 2025-05-13)"
   xmlns:inkscape="http://www.inkscape.org/namespaces/inkscape"
   xmlns:sodipodi="http://sodipodi.sourceforge.net/DTD/sodipodi-0.dtd"
   xmlns="http://www.w3.org/2000/svg"
   xmlns:svg="http://www.w3.org/2000/svg">
  <sodipodi:namedview
     id="namedview1"
     pagecolor="#ffffff"
     bordercolor="#cccccc"
     borderopacity="1"
     inkscape:showpageshadow="0"
     inkscape:pageopacity="1"
     inkscape:pagecheckerboard="0"
     inkscape:deskcolor="#d1d1d1"
     inkscape:document-units="mm"
     inkscape:zoom="0.70710678"
     inkscape:cx="263.04372"
     inkscape:cy="475.88286"
     inkscape:window-width="1920"
     inkscape:window-height="1017"
     inkscape:window-x="-8"
     inkscape:window-y="-8"
     inkscape:window-maximized="1"
     inkscape:current-layer="layer1" />
  <defs
     id="defs1" />
  <g
     inkscape:label="Camada 1"
     inkscape:groupmode="layer"
     id="layer1">
    <path
       id="path1"
       style="fill:#000000;stroke-width:0.264583"
       d="m 13.405383,160.07498 a 21.318405,20.407362 0 0 0 -13.51493704,4.62504 c 0.06433248,1.05873 0.11761882,2.11794 0.10903727568,3.17862 -3.4221e-4,1.637 -5.4717568e-4,3.27433 -0.002583826,4.91133 -0.00235129,1.59902 -0.00555951,3.19814 -0.01653645,4.79712 -0.0030773,0.38831 -0.0062138,0.77646 -0.01033529,1.16479 0.0097644,0.002 0.01969059,0.004 0.0294555657,0.006 0.002039764,3.9e-4 0.003729694,0.001 0.005167644,0.002 2.6532e-4,2e-4 0.00130665,8.2e-4 0.00155029,0.001 0.01246367,0.0129 -0.007168797,0.0532 -0.0072347,0.0765 -0.00104663,0.77115 -0.00142737,1.5424 -0.00465088,2.31355 -0.0042111,0.8832 -0.0097991,1.76639 -0.02738851,2.64945 -0.02231188,0.97126 -0.05728242,1.94213 -0.1245402,2.91145 -0.006395,0.0911 -0.0130382,0.18221 -0.0201538,0.27337 0.14578881,0.0413 0.17147171,0.19033 0.17208252,0.51521 7.3386e-4,9e-5 0.00184968,4.3e-4 0.00258382,5.2e-4 4.9552e-4,6e-5 0.00100618,0.32606 0.0015503,0.60565 0.00111002,0.86536 0.001364319,1.73086 0.00155029,2.59622 0.00468814,0.1532 0.00753354,1.18112 -0.02015381,1.73581 0.10798662,0.2716 0.17323903,0.60992 0.21962484,0.80771 0.0641196,0.36095 0.0860508,0.72732 0.1100708,1.09244 0.0549929,0.83591 -0.0941834,1.49516 -0.3607015,1.97197 A 21.318405,20.407362 0 0 0 13.405383,200.89006 21.318405,20.407362 0 0 0 34.723979,180.48252 21.318405,20.407362 0 0 0 13.405383,160.07498 Z m -13.60588756,33.89716 -5.1676e-4,5.2e-4 -5.1677e-4,5.1e-4 c -0.009312,0.0109 -0.0269308,0.0769 -0.0382406,0.10181 -0.00364,0.0138 -0.007264,0.0275 -0.010852,0.0413 0.004901,-0.005 0.0100506,-0.009 0.0149862,-0.014 0.0313932,-0.0295 0.0453681,-0.0804 0.0392741,-0.12299 -3.096e-4,-0.002 -5.8211e-4,-0.004 -0.001034,-0.005 l -5.1677e-4,-5.2e-4 v -5.2e-4 l -5.1676e-4,-5.1e-4 -5.1676e-4,-5.2e-4 h -5.1677e-4 -5.1676e-4 z" />
    <circle
       id="path14"
       style="fill:#ffffff;stroke:#000000;stroke-width:0.264583"
       cx="5.9505715"
       cy="175.76404"
       r="0.035242245" />
    <path
       style="fill:#ffffff;stroke-width:0.264583"
       id="path15"
       d="m 3.2072263,173.28856 c 0.9239993,1.31984 1.9343873,2.57457 2.8993253,3.86366 0,0 3.54515,1.52795 3.54515,1.52795 v 0 c -0.951588,-1.26901 -1.9913,-2.47601 -2.823075,-3.83102 z" />
    <path
       style="fill:#ffffff;stroke-width:0.264583"
       id="path16"
       d="m 17.511974,174.6819 c 0.906542,0.99511 1.741953,2.05347 2.590144,3.0984 0,0 3.568676,1.51956 3.568676,1.51956 v 0 c -0.848744,-1.02449 -1.694394,-2.05302 -2.507718,-3.10562 z" />
    <path
       id="path70"
       style="fill:#000000;stroke-width:0.264583"
       d="m 8.4392782,200.42032 c 0.621873,1.6444 0.8240055,3.39797 0.7844482,5.14439 -0.1359101,2.19435 -0.7723546,4.34439 -1.5482259,6.39186 -1.0161455,2.41338 -2.3192267,4.69315 -3.6230347,6.95978 -1.1738331,1.87886 -2.4205934,3.70932 -3.68091225,5.53042 0.00343,0.093 0.004336,0.18855 0.002584,0.2868 -0.0215892,1.21049 -0.14625489,2.41723 -0.21600749,3.62613 -0.09174976,1.00167 -0.08327452,1.99814 -0.0222209,2.99827 0.82271595,-1.04542 1.57940928,-2.14114 2.33680828,-3.23701 1.6602156,-2.41086 3.3044269,-4.83305 4.8880737,-7.29516 1.3132176,-2.28307 2.650013,-4.57072 3.687113,-6.99492 0.782663,-2.08252 1.452817,-4.27138 1.623674,-6.49625 0.06607,-1.78314 -0.137853,-3.54394 -0.636654,-5.26221 z" />
    <path
       style="fill:#000000;stroke-width:0.264583"
       id="path71"
       d="m 11.302317,208.27803 c -0.214728,2.63214 -0.06249,5.27294 0.150052,7.89909 0.362088,3.60879 1.13267,7.17826 2.536536,10.53229 0.300729,0.71848 0.652517,1.4145 0.978776,2.12176 1.593921,3.18616 3.504047,6.20278 5.72677,8.98676 1.279802,1.60296 2.17919,2.5736 3.523164,4.08085 1.878314,1.90836 0.961765,1.03243 2.733494,2.64458 0,0 3.503758,1.4274 3.503758,1.4274 v 0 c -1.849776,-1.60954 -0.895464,-0.73345 -2.845909,-2.64669 -1.364062,-1.49593 -2.297213,-2.47711 -3.585988,-4.07487 -2.212709,-2.74322 -4.086286,-5.74101 -5.683094,-8.88051 -0.325552,-0.6971 -0.675315,-1.3834 -0.976655,-2.0913 -1.409548,-3.31129 -2.224977,-6.83131 -2.53396,-10.41231 -0.1894,-2.5775 -0.354475,-5.18152 -0.02868,-7.75556 z" />
    <path
       id="path72"
       style="fill:#000000;stroke-width:0.264583"
       d="m -0.03875732,245.91212 c 0.0082276,0.3918 0.01421362,0.78376 0.01963704,1.17564 0.05052166,0.34222 0.05677363,0.69623 0.15141195,1.02991 1.08098193,2.21922 2.13861443,4.45093 3.16621503,6.69468 1.0953517,2.48163 1.9310065,5.04977 2.5316284,7.69101 0.3561847,2.11141 0.9126114,4.17897 1.4040487,6.26111 0.3116411,1.76638 0.8280789,3.4777 1.3487548,5.18987 0.2734093,0.84619 0.1295999,0.42475 0.4304647,1.26504 l 3.5491377,1.65416 c -0.308359,-0.82743 -0.160944,-0.41106 -0.443384,-1.24902 -0.538642,-1.70924 -1.106973,-3.40739 -1.396814,-5.18315 -0.491968,-2.08502 -1.0704548,-4.14935 -1.4200684,-6.26525 -0.1400283,-0.61991 -0.3735578,-1.69143 -0.5441529,-2.29805 -0.5291008,-1.88143 -1.3056438,-3.6877 -2.0277832,-5.4994 -1.4435953,-3.12963 -3.0168627,-6.19943 -4.3268676,-9.38961 z" />
    <path
       style="fill:#000000;stroke-width:0.264583"
       id="path76"
       d="m 13.527757,277.05888 c 1.916818,0.13529 3.873842,-0.0265 5.676632,-0.73369 0.361883,-0.14197 0.703089,-0.33186 1.054634,-0.49778 1.108904,-0.75806 0.605346,-0.3538 1.523581,-1.19653 0,0 -3.308419,-2.04634 -3.308419,-2.04634 v 0 c -0.855893,0.78992 -0.383811,0.41275 -1.429846,1.11419 -0.338739,0.15428 -0.667606,0.33239 -1.016217,0.46283 -1.79093,0.67017 -3.763393,0.80783 -5.640755,0.49599 z" />
    <path
       id="path77"
       style="fill:#000000;stroke-width:0.264583"
       d="m 6.4528361,209.2756 c -1.8029281,1.50319 -3.6857589,2.90147 -5.59087321,4.2695 0.21761181,1.03649 0.39604831,2.08133 0.54725341,3.13005 0.035466,0.2319 0.064677,0.46435 0.088884,0.69711 2.7593326,-2.00424 5.5320402,-3.99013 8.2764974,-6.01514 z" />
  </g>
</svg>
