<?xml version="1.0" encoding="UTF-8" standalone="no"?>
<!-- Created with Inkscape (http://www.inkscape.org/) -->

<svg
   width="210mm"
   height="297mm"
   viewBox="0 0 210 297"
   version="1.1"
   id="svg1"
   inkscape:version="1.4.2 (f4327f4, 2025-05-13)"
   sodipodi:docname="inomeado.svg"
   xmlns:inkscape="http://www.inkscape.org/namespaces/inkscape"
   xmlns:sodipodi="http://sodipodi.sourceforge.net/DTD/sodipodi-0.dtd"
   xmlns="http://www.w3.org/2000/svg"
   xmlns:svg="http://www.w3.org/2000/svg">
  <sodipodi:namedview
     id="namedview1"
     pagecolor="#ffffff"
     bordercolor="#cccccc"
     borderopacity="1"
     inkscape:showpageshadow="0"
     inkscape:pageopacity="1"
     inkscape:pagecheckerboard="0"
     inkscape:deskcolor="#d1d1d1"
     inkscape:document-units="mm"
     inkscape:zoom="0.70710678"
     inkscape:cx="390.32294"
     inkscape:cy="573.4636"
     inkscape:window-width="1920"
     inkscape:window-height="1017"
     inkscape:window-x="-8"
     inkscape:window-y="-8"
     inkscape:window-maximized="1"
     inkscape:current-layer="layer1" />
  <defs
     id="defs1" />
  <g
     inkscape:label="Camada 1"
     inkscape:groupmode="layer"
     id="layer1">
    <ellipse
       style="fill:#000000;stroke-width:0.264583"
       id="path1"
       cx="37.352768"
       cy="169.81841"
       rx="21.318405"
       ry="20.407362" />
    <path
       style="fill:#000000;stroke-width:0.264583"
       id="path8"
       d="m 34.211479,190.56988 c 0.02609,0.44168 0.03629,0.88459 0.07824,1.32506 0.357725,3.75621 0.93041,7.48851 1.301309,11.2444 0.439637,4.45192 0.488114,5.59133 0.801639,10.05119 0.485265,7.46979 0.639176,14.95535 0.637747,22.43922 -0.01476,2.33731 0.0027,4.67601 -0.17022,7.00809 0,0 3.417964,1.76479 3.417964,1.76479 v 0 c 0.08194,-2.38941 -0.02312,-4.77685 -0.08215,-7.16604 -0.23155,-7.55747 -0.550989,-15.11264 -1.032742,-22.65866 -0.316971,-4.55196 -0.370261,-5.48372 -0.732745,-10.02597 -0.290658,-3.64222 -0.723025,-7.29276 -0.777648,-10.94991 -0.0061,-0.40931 0.02601,-0.81829 0.03902,-1.22744 z" />
    <path
       style="fill:#000000;stroke-width:0.264583"
       id="path9"
       d="m 36.25307,241.29834 c -0.981577,3.19992 -2.765602,6.07185 -4.394308,8.97084 -1.031275,1.78837 -1.897224,3.66362 -2.796413,5.51971 0,0 3.183485,1.80301 3.183485,1.80301 v 0 c 0.857411,-1.86726 1.710754,-3.73948 2.742316,-5.51966 1.658258,-2.91245 3.436784,-5.7771 4.705588,-8.88939 z" />
    <path
       style="fill:#000000;stroke-width:0.264583"
       id="path10"
       d="m 29.685781,254.25239 c -0.30717,2.33021 -1.418764,4.40766 -2.530512,6.43942 -1.885068,3.2524 -4.043202,6.32185 -6.309986,9.31593 -1.449998,1.83941 -3.011924,3.58902 -4.602611,5.30709 0,0 3.198722,1.93651 3.198722,1.93651 v 0 c 1.539145,-1.76913 3.082905,-3.53753 4.513343,-5.39686 2.271504,-3.0135 4.538091,-6.03176 6.428462,-9.3062 1.154748,-2.04979 2.286937,-4.12807 2.775257,-6.45361 z" />
    <path
       style="fill:#000000;stroke-width:0.264583"
       id="path11"
       d="m 37.716629,241.84455 c 0.74051,2.8998 1.643523,5.75906 2.7837,8.52803 0.386431,0.93847 0.809535,1.86142 1.214302,2.79213 2.265651,4.90895 4.745569,9.72544 7.543083,14.35327 1.033224,1.63984 2.138273,3.23557 3.0241,4.96221 0.546013,0.99007 1.105546,1.97697 1.720056,2.92685 0.306107,0.47482 0.155829,0.23648 0.450901,0.71498 0,0 3.587795,1.58933 3.587795,1.58933 v 0 c -0.291069,-0.49417 -0.140269,-0.24866 -0.452663,-0.73631 -0.644702,-0.92903 -1.193599,-1.91971 -1.76321,-2.89497 -0.908457,-1.79948 -2.103998,-3.41789 -3.227077,-5.08733 -2.915079,-4.6033 -5.5074,-9.41015 -7.738322,-14.38271 -0.385276,-0.9161 -0.789797,-1.82435 -1.155827,-2.74831 -1.062106,-2.68106 -1.923923,-5.45552 -2.447668,-8.29334 z" />
    <path
       style="fill:#000000;stroke-width:0.264583"
       id="path12"
       d="m 34.330555,204.94052 c -0.116028,0.20801 -0.246224,0.40872 -0.348086,0.62401 -1.179004,2.49196 -2.017488,5.15166 -2.788213,7.79155 -0.787329,2.54175 -1.180463,5.17439 -1.704801,7.77617 -0.36871,1.96919 -0.645752,3.95122 -1.248846,5.86598 -0.399442,1.39995 -1.106096,2.67439 -1.901537,3.88331 -0.953066,1.63264 -2.340877,2.88568 -3.776805,4.08008 -0.992148,0.83238 -2.078515,1.5437 -3.16863,2.23944 -0.224937,0.14356 -0.431526,0.32694 -0.681784,0.41956 -0.252515,0.0934 -0.531709,0.0853 -0.797564,0.1279 -0.312056,-0.0438 -0.624112,-0.0876 -0.936167,-0.13146 0,0 3.072862,2.2761 3.072862,2.2761 v 0 c 0.340801,0.0165 0.681602,0.033 1.022403,0.0495 0.293899,-0.0783 0.602606,-0.11394 0.881696,-0.23481 0.244748,-0.10601 0.447813,-0.28988 0.670093,-0.43729 1.087436,-0.72116 2.175923,-1.44632 3.181631,-2.28025 1.461551,-1.22357 2.856683,-2.51877 3.862925,-4.15957 0.816554,-1.2388 1.578618,-2.53213 1.951315,-3.98205 0.573537,-1.94272 0.862727,-3.93967 1.207878,-5.93248 0.497827,-2.60441 0.906524,-5.23032 1.613157,-7.78985 0.789469,-2.83268 1.654747,-5.72744 3.280114,-8.20807 z" />
    <circle
       id="path14"
       style="fill:#ffffff;stroke:#000000;stroke-width:0.264583"
       cx="29.897917"
       cy="165.09999"
       r="0.035242245" />
    <path
       style="fill:#ffffff;stroke-width:0.264583"
       id="path15"
       d="m 28.277108,164.30831 c 0.923999,1.31984 1.934387,2.57457 2.899325,3.86366 0,0 3.54515,1.52795 3.54515,1.52795 v 0 c -0.951588,-1.26901 -1.9913,-2.47601 -2.823075,-3.83102 z" />
    <path
       style="fill:#ffffff;stroke-width:0.264583"
       id="path16"
       d="m 42.02059,165.32747 c 0.906542,0.99511 1.741953,2.05347 2.590144,3.0984 0,0 3.568676,1.51956 3.568676,1.51956 v 0 c -0.848744,-1.02449 -1.694394,-2.05302 -2.507718,-3.10562 z" />
    <path
       style="fill:#000000;stroke-width:0.264583"
       id="path17"
       d="m 40.019485,208.68203 c 0.185325,0.0367 0.373314,0.0619 0.555977,0.11017 0.305311,0.0807 0.988547,0.32075 1.270246,0.45715 0.210834,0.1021 0.817589,0.4574 0.609391,0.35002 -2.918565,-1.50515 -3.364486,-2.17237 -1.897258,-0.58133 2.200407,3.1406 3.140808,6.93105 4.386681,10.50821 0.973968,2.52194 2.099651,5.00938 3.673742,7.22115 0.386516,0.54309 0.777047,1.0878 1.23054,1.57636 0.50842,0.54774 1.097219,1.01497 1.645827,1.52246 3.741256,2.48299 1.337159,0.9799 7.382753,4.2244 0,0 -2.773706,-2.213 -2.773706,-2.213 v 0 c 1.392097,1.17419 1.058955,0.83403 -1.272738,-0.64836 -0.544026,-0.48407 -1.128213,-0.92646 -1.632075,-1.4522 -0.457102,-0.47695 -0.850498,-1.01239 -1.240782,-1.54539 -1.597591,-2.18185 -2.745639,-4.6456 -3.733167,-7.15098 -0.234429,-0.66459 -0.476904,-1.32639 -0.703281,-1.99377 -0.988936,-2.91544 -1.770817,-5.9554 -3.463735,-8.56747 -0.229534,-0.28883 -0.389175,-0.65096 -0.688602,-0.86648 -2.048867,-1.47477 -4.032435,-2.84609 -6.492512,-3.32175 z" />
    <path
       style="fill:#000000;stroke-width:0.264583"
       id="path18"
       d="m 53.189827,275.4217 c 1.575057,1.17477 3.31633,2.06356 5.037794,3.02175 0.651637,0.36272 1.350764,0.54501 2.072973,0.69442 1.680017,-0.10324 2.432103,-0.79271 3.244458,-2.19633 0.475314,-0.78208 0.669171,-1.66097 0.89594,-2.53164 0,0 -3.469923,-1.87735 -3.469923,-1.87735 v 0 c -0.206007,0.84267 -0.332816,1.70643 -0.794554,2.46541 -0.690547,1.21561 -1.487104,1.90448 -2.957846,1.78949 -0.664324,-0.17788 -0.688787,-0.15777 -1.333317,-0.44225 -0.225684,-0.0996 -0.874234,-0.45556 -0.664678,-0.32541 4.919527,3.05564 2.68942,1.62245 1.633376,0.85912 z" />
    <path
       style="fill:#000000;stroke-width:0.264583"
       id="path19"
       d="m 16.126973,275.32631 c 3.559732,2.38631 7.243033,4.15015 11.283619,5.45606 0.966311,0.2885 1.943251,0.51649 2.924612,0.14676 0.861139,-0.32443 1.531731,-1.00917 2.199989,-1.60967 0.541827,-0.57534 1.063585,-1.16891 1.584944,-1.76263 0,0 -3.320846,-2.00038 -3.320846,-2.00038 v 0 c -0.495438,0.59094 -0.98674,1.18652 -1.527352,1.73754 -0.631934,0.55923 -1.26052,1.18118 -2.094037,1.4315 -0.919809,0.27626 -1.84967,0.004 -2.73634,-0.24601 -1.443674,-0.47079 -2.858828,-0.9767 -4.240704,-1.612 -0.505739,-0.23249 -1.897609,-1.12458 -1.498771,-0.7363 0.543388,0.529 1.299216,0.78261 1.948624,1.17424 0.300941,0.18148 -0.602149,-0.36253 -0.903223,-0.5438 z" />
  </g>
</svg>
