<?xml version="1.0" encoding="UTF-8" standalone="no"?>
<!-- Created with Inkscape (http://www.inkscape.org/) -->

<svg
   width="210mm"
   height="297mm"
   viewBox="0 0 210 297"
   version="1.1"
   id="svg1"
   inkscape:version="1.4.2 (f4327f4, 2025-05-13)"
   xmlns:inkscape="http://www.inkscape.org/namespaces/inkscape"
   xmlns:sodipodi="http://sodipodi.sourceforge.net/DTD/sodipodi-0.dtd"
   xmlns="http://www.w3.org/2000/svg"
   xmlns:svg="http://www.w3.org/2000/svg">
  <sodipodi:namedview
     id="namedview1"
     pagecolor="#ffffff"
     bordercolor="#cccccc"
     borderopacity="1"
     inkscape:showpageshadow="0"
     inkscape:pageopacity="1"
     inkscape:pagecheckerboard="0"
     inkscape:deskcolor="#d1d1d1"
     inkscape:document-units="mm"
     inkscape:zoom="1.4142136"
     inkscape:cx="174.65537"
     inkscape:cy="785.24208"
     inkscape:window-width="1920"
     inkscape:window-height="1017"
     inkscape:window-x="-8"
     inkscape:window-y="-8"
     inkscape:window-maximized="1"
     inkscape:current-layer="layer1" />
  <defs
     id="defs1" />
  <g
     inkscape:label="Camada 1"
     inkscape:groupmode="layer"
     id="layer1">
    <ellipse
       style="fill:#000000;stroke-width:0.264583"
       id="path1"
       cx="61.300117"
       cy="169.63132"
       rx="21.318405"
       ry="20.407362" />
    <path
       style="fill:#000000;stroke-width:0.264583"
       id="path8"
       d="m 58.158829,190.38279 c 0.02609,0.44168 0.03629,0.88459 0.07824,1.32506 0.357725,3.75621 0.93041,7.48851 1.301309,11.2444 0.439637,4.45192 0.488114,5.59133 0.801639,10.05119 0.485265,7.46979 0.639176,14.95535 0.637747,22.43922 -0.01476,2.33731 0.0027,4.67601 -0.17022,7.00809 0,0 3.417964,1.76479 3.417964,1.76479 v 0 c 0.08194,-2.38941 -0.02312,-4.77685 -0.08215,-7.16604 -0.23155,-7.55747 -0.550989,-15.11264 -1.032742,-22.65866 -0.316971,-4.55196 -0.370261,-5.48372 -0.732745,-10.02597 -0.290658,-3.64222 -0.723025,-7.29276 -0.777648,-10.94991 -0.0061,-0.40931 0.02601,-0.81829 0.03902,-1.22744 z" />
    <path
       style="fill:#000000;stroke-width:0.264583"
       id="path12"
       d="m 58.277905,204.75343 c -0.116028,0.20801 -0.246224,0.40872 -0.348086,0.62401 -1.179004,2.49196 -2.017488,5.15166 -2.788213,7.79155 -0.787329,2.54175 -1.180463,5.17439 -1.704801,7.77617 -0.36871,1.96919 -0.645752,3.95122 -1.248846,5.86598 -0.399442,1.39995 -1.106096,2.67439 -1.901537,3.88331 -0.953066,1.63264 -2.340877,2.88568 -3.776805,4.08008 -0.992148,0.83238 -2.078515,1.5437 -3.16863,2.23944 -0.224937,0.14356 -0.431526,0.32694 -0.681784,0.41956 -0.252515,0.0934 -0.531709,0.0853 -0.797564,0.1279 -0.312056,-0.0438 -0.624112,-0.0876 -0.936167,-0.13146 0,0 3.072862,2.2761 3.072862,2.2761 v 0 c 0.340801,0.0165 0.681602,0.033 1.022403,0.0495 0.293899,-0.0783 0.602606,-0.11394 0.881696,-0.23481 0.244748,-0.10601 0.447813,-0.28988 0.670093,-0.43729 1.087436,-0.72116 2.175923,-1.44632 3.181631,-2.28025 1.461551,-1.22357 2.856683,-2.51877 3.862925,-4.15957 0.816554,-1.2388 1.578618,-2.53213 1.951315,-3.98205 0.573537,-1.94272 0.862727,-3.93967 1.207878,-5.93248 0.497827,-2.60441 0.906524,-5.23032 1.613157,-7.78985 0.789469,-2.83268 1.654747,-5.72744 3.280114,-8.20807 z" />
    <circle
       id="path14"
       style="fill:#ffffff;stroke:#000000;stroke-width:0.264583"
       cx="53.845268"
       cy="164.9129"
       r="0.035242245" />
    <path
       style="fill:#ffffff;stroke-width:0.264583"
       id="path15"
       d="m 52.224458,164.12122 c 0.923999,1.31984 1.934387,2.57457 2.899325,3.86366 0,0 3.54515,1.52795 3.54515,1.52795 v 0 c -0.951588,-1.26901 -1.9913,-2.47601 -2.823075,-3.83102 z" />
    <path
       style="fill:#ffffff;stroke-width:0.264583"
       id="path16"
       d="m 65.96794,165.14038 c 0.906542,0.99511 1.741953,2.05347 2.590144,3.0984 0,0 3.568676,1.51956 3.568676,1.51956 v 0 c -0.848744,-1.02449 -1.694394,-2.05302 -2.507718,-3.10562 z" />
    <path
       style="fill:#000000;stroke-width:0.264583"
       id="path17"
       d="m 63.966835,208.49494 c 0.185325,0.0367 0.373314,0.0619 0.555977,0.11017 0.305311,0.0807 0.988547,0.32075 1.270246,0.45715 0.210834,0.1021 0.817589,0.4574 0.609391,0.35002 -2.918565,-1.50515 -3.364486,-2.17237 -1.897258,-0.58133 2.200407,3.1406 3.140808,6.93105 4.386681,10.50821 0.973968,2.52194 2.099651,5.00938 3.673742,7.22115 0.386516,0.54309 0.777047,1.0878 1.23054,1.57636 0.50842,0.54774 1.097219,1.01497 1.645827,1.52246 3.741256,2.48299 1.337159,0.9799 7.382753,4.2244 0,0 -2.773706,-2.213 -2.773706,-2.213 v 0 c 1.392097,1.17419 1.058955,0.83403 -1.272738,-0.64836 -0.544026,-0.48407 -1.128213,-0.92646 -1.632075,-1.4522 -0.457102,-0.47695 -0.850498,-1.01239 -1.240782,-1.54539 -1.597591,-2.18185 -2.745639,-4.6456 -3.733167,-7.15098 -0.234429,-0.66459 -0.476904,-1.32639 -0.703281,-1.99377 -0.988936,-2.91544 -1.770817,-5.9554 -3.463735,-8.56747 -0.229534,-0.28883 -0.389175,-0.65096 -0.688602,-0.86648 -2.048867,-1.47477 -4.032435,-2.84609 -6.492512,-3.32175 z" />
    <path
       style="fill:#000000;stroke-width:0.264583"
       id="path21"
       d="m 60.754093,241.69299 c 0.261289,1.62602 0.407691,3.26522 0.504618,4.90819 0.09733,1.88591 0.111448,3.77454 0.117438,5.6625 -0.0191,1.56241 0.03905,3.12375 0.145759,4.68209 0.04947,0.95133 0.159684,1.89705 0.253217,2.84454 0.07091,0.7782 0.176165,1.55184 0.235897,2.33126 0.148521,1.41235 0.288126,2.82628 0.451416,4.23719 0.146569,1.33869 0.280602,2.67687 0.465926,4.01082 0.131482,1.07315 0.243054,2.14768 0.59295,3.17447 0.167103,0.39288 0.212923,0.54475 0.444677,0.90911 0.07649,0.12025 0.434467,0.61439 0.577737,0.70403 3.476728,2.17546 2.353235,1.83999 4.184499,2.30796 1.634871,0.22847 3.274933,-0.15642 4.871746,-0.47871 0,0 -3.121499,-2.17098 -3.121499,-2.17098 v 0 c -1.572474,0.34086 -3.218037,0.69807 -4.80937,0.27151 -1.397416,-0.59362 -1.269693,-0.56332 2.474505,1.55117 0.12257,0.0692 -0.221271,-0.17483 -0.322406,-0.27276 -0.349091,-0.33797 -0.607589,-0.73699 -0.788405,-1.1876 -0.06172,-0.15068 -0.132281,-0.29806 -0.185158,-0.4521 -0.293286,-0.85431 -0.310055,-1.77845 -0.472501,-2.66001 -0.190077,-1.33948 -0.347033,-2.68166 -0.512292,-4.02437 -0.167285,-1.38832 -0.265715,-2.78392 -0.383209,-4.17707 -0.02892,-0.78392 -0.120801,-1.55863 -0.207962,-2.33744 -0.103011,-0.95595 -0.256315,-1.90607 -0.314585,-2.86679 -0.154821,-1.55848 -0.23264,-3.1254 -0.232105,-4.69164 -0.0087,-1.89222 -0.0067,-3.78558 -0.09887,-5.67604 -0.09328,-1.61709 -0.248869,-3.22862 -0.360227,-4.84381 z" />
    <path
       style="fill:#000000;stroke-width:0.264583"
       id="path22"
       d="m 61.461916,241.75357 c 0.208698,0.18106 0.414282,0.36576 0.626092,0.54317 1.102185,0.92313 1.094711,0.86722 2.216367,1.84563 1.089551,0.95041 2.127284,1.95838 3.174772,2.95426 1.601121,1.51455 3.025791,3.18851 4.326597,4.96328 1.326533,1.90909 2.503273,3.91625 3.730545,5.8892 1.49859,2.43162 2.914997,4.91163 4.385302,7.36018 1.713352,2.91931 3.445222,5.82922 5.248122,8.69437 0.438306,0.66863 0.83,1.37284 1.343289,1.98959 0.0931,0.11186 0.418105,0.46752 0.570833,0.55827 1.191049,0.70757 2.402327,1.38054 3.603493,2.07081 0.396243,0.0414 0.861042,0.13224 1.250767,-0.007 0.08705,-0.031 0.165569,-0.0821 0.248352,-0.12316 0.789445,-0.46533 1.491744,-1.06704 2.211736,-1.63121 0.533302,-0.39823 1.076193,-0.7823 1.590011,-1.20558 0,0 -3.305654,-2.06385 -3.305654,-2.06385 v 0 c -0.494813,0.43016 -1.020347,0.82132 -1.544589,1.2148 -0.704424,0.54113 -1.402091,1.12398 -2.21973,1.48699 -0.43465,0.10075 -0.894707,0.0727 -1.299559,-0.12525 7.319647,4.29738 3.164789,2.0512 2.43342,1.32778 -0.603097,-0.59653 -1.038672,-1.33234 -1.525066,-2.01983 -1.907106,-2.82294 -3.649356,-5.75315 -5.335016,-8.71265 -1.392153,-2.46722 -2.840726,-4.9024 -4.299283,-7.33108 -1.195375,-1.97665 -2.372104,-3.96674 -3.655735,-5.88788 -0.305356,-0.42473 -0.886637,-1.24412 -1.213501,-1.65571 -0.965237,-1.21541 -2.08901,-2.2989 -3.171859,-3.40621 -1.057476,-0.99921 -2.102853,-2.01323 -3.189891,-2.98057 -0.470821,-0.41898 -1.543383,-1.32733 -2.049468,-1.77127 -0.178546,-0.15662 -0.35256,-0.31833 -0.528838,-0.47749 z" />
  </g>
</svg>
