<?xml version="1.0" encoding="UTF-8" standalone="no"?>
<!-- Created with Inkscape (http://www.inkscape.org/) -->

<svg
   width="210mm"
   height="297mm"
   viewBox="0 0 210 297"
   version="1.1"
   id="svg1"
   inkscape:version="1.4.2 (f4327f4, 2025-05-13)"
   xmlns:inkscape="http://www.inkscape.org/namespaces/inkscape"
   xmlns:sodipodi="http://sodipodi.sourceforge.net/DTD/sodipodi-0.dtd"
   xmlns="http://www.w3.org/2000/svg"
   xmlns:svg="http://www.w3.org/2000/svg">
  <sodipodi:namedview
     id="namedview1"
     pagecolor="#ffffff"
     bordercolor="#cccccc"
     borderopacity="1"
     inkscape:showpageshadow="0"
     inkscape:pageopacity="1"
     inkscape:pagecheckerboard="0"
     inkscape:deskcolor="#d1d1d1"
     inkscape:document-units="mm"
     inkscape:zoom="1.4142136"
     inkscape:cx="174.65537"
     inkscape:cy="785.24208"
     inkscape:window-width="1920"
     inkscape:window-height="1017"
     inkscape:window-x="-8"
     inkscape:window-y="-8"
     inkscape:window-maximized="1"
     inkscape:current-layer="layer1" />
  <defs
     id="defs1" />
  <g
     inkscape:label="Camada 1"
     inkscape:groupmode="layer"
     id="layer1">
    <ellipse
       style="fill:#000000;stroke-width:0.264583"
       id="path1"
       cx="61.300117"
       cy="169.63132"
       rx="21.318405"
       ry="20.407362" />
    <path
       style="fill:#000000;stroke-width:0.264583"
       id="path8"
       d="m 58.158829,190.38279 c 0.02609,0.44168 0.03629,0.88459 0.07824,1.32506 0.357725,3.75621 0.93041,7.48851 1.301309,11.2444 0.439637,4.45192 0.488114,5.59133 0.801639,10.05119 0.485265,7.46979 0.639176,14.95535 0.637747,22.43922 -0.01476,2.33731 0.0027,4.67601 -0.17022,7.00809 0,0 3.417964,1.76479 3.417964,1.76479 v 0 c 0.08194,-2.38941 -0.02312,-4.77685 -0.08215,-7.16604 -0.23155,-7.55747 -0.550989,-15.11264 -1.032742,-22.65866 -0.316971,-4.55196 -0.370261,-5.48372 -0.732745,-10.02597 -0.290658,-3.64222 -0.723025,-7.29276 -0.777648,-10.94991 -0.0061,-0.40931 0.02601,-0.81829 0.03902,-1.22744 z" />
    <path
       style="fill:#000000;stroke-width:0.264583"
       id="path12"
       d="m 58.277905,204.75343 c -0.116028,0.20801 -0.246224,0.40872 -0.348086,0.62401 -1.179004,2.49196 -2.017488,5.15166 -2.788213,7.79155 -0.787329,2.54175 -1.180463,5.17439 -1.704801,7.77617 -0.36871,1.96919 -0.645752,3.95122 -1.248846,5.86598 -0.399442,1.39995 -1.106096,2.67439 -1.901537,3.88331 -0.953066,1.63264 -2.340877,2.88568 -3.776805,4.08008 -0.992148,0.83238 -2.078515,1.5437 -3.16863,2.23944 -0.224937,0.14356 -0.431526,0.32694 -0.681784,0.41956 -0.252515,0.0934 -0.531709,0.0853 -0.797564,0.1279 -0.312056,-0.0438 -0.624112,-0.0876 -0.936167,-0.13146 0,0 3.072862,2.2761 3.072862,2.2761 v 0 c 0.340801,0.0165 0.681602,0.033 1.022403,0.0495 0.293899,-0.0783 0.602606,-0.11394 0.881696,-0.23481 0.244748,-0.10601 0.447813,-0.28988 0.670093,-0.43729 1.087436,-0.72116 2.175923,-1.44632 3.181631,-2.28025 1.461551,-1.22357 2.856683,-2.51877 3.862925,-4.15957 0.816554,-1.2388 1.578618,-2.53213 1.951315,-3.98205 0.573537,-1.94272 0.862727,-3.93967 1.207878,-5.93248 0.497827,-2.60441 0.906524,-5.23032 1.613157,-7.78985 0.789469,-2.83268 1.654747,-5.72744 3.280114,-8.20807 z" />
    <circle
       id="path14"
       style="fill:#ffffff;stroke:#000000;stroke-width:0.264583"
       cx="53.845268"
       cy="164.9129"
       r="0.035242245" />
    <path
       style="fill:#ffffff;stroke-width:0.264583"
       id="path15"
       d="m 52.224458,164.12122 c 0.923999,1.31984 1.934387,2.57457 2.899325,3.86366 0,0 3.54515,1.52795 3.54515,1.52795 v 0 c -0.951588,-1.26901 -1.9913,-2.47601 -2.823075,-3.83102 z" />
    <path
       style="fill:#ffffff;stroke-width:0.264583"
       id="path16"
       d="m 65.96794,165.14038 c 0.906542,0.99511 1.741953,2.05347 2.590144,3.0984 0,0 3.568676,1.51956 3.568676,1.51956 v 0 c -0.848744,-1.02449 -1.694394,-2.05302 -2.507718,-3.10562 z" />
    <path
       style="fill:#000000;stroke-width:0.264583"
       id="path17"
       d="m 63.966835,208.49494 c 0.185325,0.0367 0.373314,0.0619 0.555977,0.11017 0.305311,0.0807 0.988547,0.32075 1.270246,0.45715 0.210834,0.1021 0.817589,0.4574 0.609391,0.35002 -2.918565,-1.50515 -3.364486,-2.17237 -1.897258,-0.58133 2.200407,3.1406 3.140808,6.93105 4.386681,10.50821 0.973968,2.52194 2.099651,5.00938 3.673742,7.22115 0.386516,0.54309 0.777047,1.0878 1.23054,1.57636 0.50842,0.54774 1.097219,1.01497 1.645827,1.52246 3.741256,2.48299 1.337159,0.9799 7.382753,4.2244 0,0 -2.773706,-2.213 -2.773706,-2.213 v 0 c 1.392097,1.17419 1.058955,0.83403 -1.272738,-0.64836 -0.544026,-0.48407 -1.128213,-0.92646 -1.632075,-1.4522 -0.457102,-0.47695 -0.850498,-1.01239 -1.240782,-1.54539 -1.597591,-2.18185 -2.745639,-4.6456 -3.733167,-7.15098 -0.234429,-0.66459 -0.476904,-1.32639 -0.703281,-1.99377 -0.988936,-2.91544 -1.770817,-5.9554 -3.463735,-8.56747 -0.229534,-0.28883 -0.389175,-0.65096 -0.688602,-0.86648 -2.048867,-1.47477 -4.032435,-2.84609 -6.492512,-3.32175 z" />
    <path
       style="fill:#000000;stroke-width:0.264583"
       id="path21"
       d="m 60.754093,241.69299 c 0.261289,1.62602 0.407691,3.26522 0.504618,4.90819 0.09733,1.88591 0.111448,3.77454 0.117438,5.6625 -0.0191,1.56241 0.03905,3.12375 0.145759,4.68209 0.04947,0.95133 0.159684,1.89705 0.253217,2.84454 0.07091,0.7782 0.176165,1.55184 0.235897,2.33126 0.148521,1.41235 0.288126,2.82628 0.451416,4.23719 0.146569,1.33869 0.280602,2.67687 0.465926,4.01082 0.131482,1.07315 0.243054,2.14768 0.59295,3.17447 0.167103,0.39288 0.212923,0.54475 0.444677,0.90911 0.07649,0.12025 0.434467,0.61439 0.577737,0.70403 3.476728,2.17546 2.353235,1.83999 4.184499,2.30796 1.634871,0.22847 3.274933,-0.15642 4.871746,-0.47871 0,0 -3.121499,-2.17098 -3.121499,-2.17098 v 0 c -1.572474,0.34086 -3.218037,0.69807 -4.80937,0.27151 -1.397416,-0.59362 -1.269693,-0.56332 2.474505,1.55117 0.12257,0.0692 -0.221271,-0.17483 -0.322406,-0.27276 -0.349091,-0.33797 -0.607589,-0.73699 -0.788405,-1.1876 -0.06172,-0.15068 -0.132281,-0.29806 -0.185158,-0.4521 -0.293286,-0.85431 -0.310055,-1.77845 -0.472501,-2.66001 -0.190077,-1.33948 -0.347033,-2.68166 -0.512292,-4.02437 -0.167285,-1.38832 -0.265715,-2.78392 -0.383209,-4.17707 -0.02892,-0.78392 -0.120801,-1.55863 -0.207962,-2.33744 -0.103011,-0.95595 -0.256315,-1.90607 -0.314585,-2.86679 -0.154821,-1.55848 -0.23264,-3.1254 -0.232105,-4.69164 -0.0087,-1.89222 -0.0067,-3.78558 -0.09887,-5.67604 -0.09328,-1.61709 -0.248869,-3.22862 -0.360227,-4.84381 z" />
    <path
       style="fill:#000000;stroke-width:0.264583"
       id="path22"
       d="m 60.13079,241.61368 c -0.205653,1.54089 -0.718582,3.01005 -1.248749,4.46346 -0.52742,1.38986 -1.304057,2.66193 -1.829779,4.05165 -0.05082,0.17659 -0.104153,0.35247 -0.152455,0.52975 -0.12065,0.44285 -0.117549,0.51653 -0.263039,0.94245 -0.133826,0.39178 -0.314422,0.76768 -0.474866,1.14886 -0.279868,0.71539 -0.469048,1.46016 -0.666369,2.20105 -0.238048,0.98859 -0.507447,1.96545 -0.853276,2.92191 -0.407895,1.04584 -0.916233,2.04531 -1.438214,3.03725 -0.424505,0.77696 -0.973793,1.45727 -1.595215,2.08099 -0.736169,1.03699 -1.541203,2.01273 -2.45432,2.89861 -0.162891,0.0763 -0.310184,0.20658 -0.488672,0.22897 -0.492342,0.0618 -1.513446,-0.59891 -1.164693,-0.39508 4.746691,2.77411 2.568,1.49831 1.677511,0.81764 -0.325763,-0.249 -0.635323,-0.5185 -0.952984,-0.77774 -1.574554,-1.32164 -2.935828,-2.86458 -4.36063,-4.33937 -1.3253,-1.27634 -0.772686,-0.8021 -4.024566,-2.49006 -0.151887,-0.0788 -0.516843,0.13236 -0.616943,0.21896 -0.197635,0.17101 -0.253404,0.34279 -0.367032,0.57082 -0.343249,0.63312 -0.670909,1.27027 -1.056799,1.87851 -0.04414,0.0769 -0.09919,0.14849 -0.1324,0.23071 -0.09017,0.22323 -0.142989,0.54225 -0.195212,0.77197 -0.09199,0.40465 -0.203388,0.79555 -0.338185,1.18776 -0.19389,0.6684 -0.474486,1.30538 -0.705197,1.96028 0,0 3.420271,1.89314 3.420271,1.89314 v 0 c 0.237347,-0.65553 0.522875,-1.29275 0.6969,-1.97085 0.137713,-0.40466 0.254743,-0.80828 0.357888,-1.22314 0.02864,-0.11519 0.120843,-0.52146 0.175358,-0.65891 0.03057,-0.0771 0.077,-0.14689 0.115499,-0.22034 0.367419,-0.62929 0.685551,-1.28403 1.068856,-1.90413 0.09019,-0.16794 0.168489,-0.38818 0.406347,-0.3621 0.07579,0.008 0.282466,0.11045 0.217656,0.0703 -3.418223,-2.11812 -3.809756,-2.49834 -2.556126,-1.41648 1.506302,1.45594 2.885903,3.04075 4.469217,4.41741 2.041107,1.79376 2.678983,2.08377 5.706751,3.69979 0.395372,0.21103 0.953817,0.29165 1.388017,0.14383 0.195096,-0.0664 0.345879,-0.22419 0.518819,-0.33629 0.880194,-0.92236 1.727705,-1.87425 2.542884,-2.85472 0.60969,-0.67623 1.157959,-1.40485 1.593926,-2.20716 0.522571,-1.01046 1.053616,-2.01903 1.477002,-3.07639 0.340982,-0.96493 0.618919,-1.94874 0.898028,-2.93304 0.196839,-0.72449 0.375563,-1.45477 0.637701,-2.15964 0.160195,-0.39649 0.339995,-0.78566 0.47516,-1.19184 0.161917,-0.48656 0.133874,-0.45893 0.256022,-0.95907 0.04145,-0.16974 0.08622,-0.33866 0.129325,-0.50799 0.474972,-1.41196 1.227514,-2.69804 1.76157,-4.08651 0.531825,-1.45465 1.030015,-2.92133 1.401855,-4.42582 z" />
  </g>
</svg>
